<svg xmlns="http://www.w3.org/2000/svg" width="759.609" height="659" viewBox="0 0 759.609 659">
  <g id="undraw_social_notifications_ro8o" transform="translate(0 0)">
    <g id="man">
      <path id="Path_1" data-name="Path 1" d="M532.306,552.3c1.92-1.2,3.855-2.465,5.749-3.743l1.286,1.906c-1.916,1.293-3.871,2.566-5.813,3.785Z" transform="translate(-220.196 -120.5)" fill="#e6e6e6"/>
      <path id="Path_3" data-name="Path 3" d="M598.285,276.626l1.97-1.186c1.2,1.989,2.367,4.008,3.477,6l-2.008,1.119C600.626,280.589,599.469,278.592,598.285,276.626Z" transform="translate(-220.196 -120.5)" fill="#e6e6e6"/>
      <ellipse id="Ellipse_1" data-name="Ellipse 1" cx="282" cy="17" rx="282" ry="17" transform="translate(195.609 625)" fill="#3f3d56"/>
      <path id="Path_4" data-name="Path 4" d="M748.352,275.3s7.9,102.718-3.161,105.879-50.569,26.865-113.78,20.544c0,0-61.631,33.186-52.149,1.58s52.149-23.7,52.149-23.7,75.854-15.8,79.014-26.865-9.482-56.89-4.741-58.47S748.352,275.3,748.352,275.3Z" transform="translate(-220.196 -120.5)" fill="#a0616a"/>
      <path id="Path_5" data-name="Path 5" d="M588.357,377.742h0l21.219-4.914a4.63,4.63,0,0,1,5.215,2.5L636.527,420.4a3.742,3.742,0,0,1-2.348,5.225l-21.564,6.127a4.944,4.944,0,0,1-5.892-2.8l-13.869-32.214-.423.234-2.64-6.1.439-.224-3.871-8.992a2.851,2.851,0,0,1,2-3.91Z" transform="translate(-220.196 -120.5)" fill="#3f3d56"/>
      <path id="Path_6" data-name="Path 6" d="M607.02,374.5l2.477-.574a3.2,3.2,0,0,1,3.614,1.747l21.215,44.785a1.983,1.983,0,0,1-1.219,2.747l-21.413,6.461a2.568,2.568,0,0,1-3.1-1.445L588.521,381.5a2.249,2.249,0,0,1,1.559-3.079l2.35-.544a1.061,1.061,0,0,1,1.176.534h0a.937.937,0,0,0,1.038.471L605.8,376.3a1.6,1.6,0,0,0,1.222-1.8Z" transform="translate(-220.196 -120.5)" fill="#6c63ff"/>
      <path id="Path_7" data-name="Path 7" d="M653.7,454.388s6.161,148.4,15.642,170.521c7.9,18.429,12.506,78.522,13.826,98.083.265,3.923.4,6.215.4,6.215s25.284,0,26.865-6.321,6.321-75.854,0-97.977,8.062-175.262,8.062-175.262Z" transform="translate(-220.196 -120.5)" fill="#2f2e41"/>
      <path id="Path_8" data-name="Path 8" d="M689.881,721.306s-15.8,4.741-18.963,11.062-55.31,17.383-39.507,25.285,63.211-6.321,63.211-6.321,25.284-1.58,23.7-11.062-7.335-21.165-7.335-21.165Z" transform="translate(-220.196 -120.5)" fill="#2f2e41"/>
      <path id="Path_9" data-name="Path 9" d="M734.129,738.32s-15.8,4.741-18.963,11.062-55.31,17.383-39.507,25.284,63.211-6.321,63.211-6.321,25.284-1.58,23.7-11.062-7.335-21.165-7.335-21.165Z" transform="translate(-220.196 -120.5)" fill="#2f2e41"/>
      <path id="Path_10" data-name="Path 10" d="M667.757,450.709l22.124,37.927L726.8,620.5s-3.737,120.981,1,120.981,30.025,7.9,31.606,0c1.335-6.674,19.034-70.611,10.212-113.167a544.185,544.185,0,0,1-11.042-81.643l-3.91-73.838s15.8-28.445-1.58-33.186S667.757,450.709,667.757,450.709Z" transform="translate(-220.196 -120.5)" fill="#2f2e41"/>
      <circle id="Ellipse_2" data-name="Ellipse 2" cx="37.927" cy="37.927" r="37.927" transform="translate(430.178 10.992)" fill="#a0616a"/>
      <path id="Path_11" data-name="Path 11" d="M683.56,194.7s6.321,50.569,4.741,53.73,37.927-34.766,37.927-34.766-14.222-22.124-11.062-33.186Z" transform="translate(-220.196 -120.5)" fill="#a0616a"/>
      <path id="Path_12" data-name="Path 12" d="M772.056,245.273s-44.248-31.606-45.828-37.927l-33.186,28.445-5.639-6.712s-25.967,25.676-25.967,36.738-1.58,44.248,3.161,53.729-14.222,129.583-14.222,129.583,15.8,14.223,17.383,15.8,64.792-9.482,64.792-9.482,31.606-3.161,31.606-7.9-9.482-75.853-6.321-94.817S772.056,245.273,772.056,245.273Z" transform="translate(-220.196 -120.5)" fill="#d0cde1"/>
      <path id="Path_13" data-name="Path 13" d="M781.537,289.52s7.9,102.718-3.161,105.879-50.569,26.865-113.78,20.544c0,0-61.631,33.186-52.149,1.58s52.149-23.7,52.149-23.7,75.854-15.8,79.014-26.865-9.482-56.89-4.741-58.47S781.537,289.52,781.537,289.52Z" transform="translate(-220.196 -120.5)" fill="#a0616a"/>
      <path id="Path_14" data-name="Path 14" d="M672.1,150.473c5.184-1.845,10.9-2.793,16.19-1.263,7.481,2.165,12.663,8.723,18.251,14.147s13.426,10.231,20.784,7.68a12.185,12.185,0,0,1,2.328-9c.819-1.078,1.86-2.1,2.067-3.44.314-2.031-1.394-3.783-1.906-5.774-.9-3.489,1.563-8.264-1.462-10.219-.8-.516-1.81-.634-2.589-1.178-3.059-2.138.338-7.455-1.684-10.591a6.467,6.467,0,0,0-2.3-1.917c-14.664-8.556-32.6-8.58-49.573-8.364-2.363.03-5.654,1.2-4.987,3.471-3.208-2.3-7.409.931-10,3.916l-5.293,6.109a47.065,47.065,0,0,0-6.469,8.75c-1.617,3.092-1.974,7.846,1.244,9.194-2.392-1-5.295,13.169,5.734,10.837C658.85,161.476,665.131,152.953,672.1,150.473Z" transform="translate(-220.196 -120.5)" fill="#2f2e41"/>
      <path id="Path_15" data-name="Path 15" d="M746.771,248.433l25.284-3.161s25.284,48.989,11.062,56.89-50.569,14.223-50.569,11.062S746.771,248.433,746.771,248.433Z" transform="translate(-220.196 -120.5)" fill="#d0cde1"/>
    </g>
    <g id="circle-social">
      <path id="Path_2" data-name="Path 2" d="M310.362,211.241c2.562-1.729,5.184-3.415,7.794-5.012l1.2,1.962c-3.909,2.391-7.821,4.971-11.579,7.635l-1.329-1.877Q308.383,212.577,310.362,211.241Zm-15.076,11.2,1.454,1.781c-3.574,2.916-7.084,5.988-10.437,9.128l-1.572-1.678c3.39-3.176,6.94-6.282,10.554-9.232Zm35.071-23.122c4.135-2.158,8.389-4.2,12.646-6.06l.921,2.107c-4.207,1.842-8.414,3.858-12.5,5.993Zm-55.522,42.288,1.684,1.567c-3.135,3.37-6.192,6.894-9.086,10.473l-1.788-1.445c2.929-3.621,6.021-7.186,9.191-10.6Zm81.2-53.524c4.382-1.568,8.877-3,13.36-4.265l.624,2.212c-4.434,1.25-8.878,2.669-13.211,4.218ZM257.209,263.4l1.884,1.318c-2.639,3.77-5.18,7.678-7.55,11.613l-1.969-1.187C251.971,271.169,254.539,267.218,257.209,263.4Zm125.832-82.926c4.57-.951,9.225-1.754,13.837-2.386l.312,2.279c-4.56.625-9.163,1.418-13.681,2.359ZM242.761,287.393l2.046,1.049c-2.1,4.1-4.08,8.318-5.889,12.544l-2.115-.905C238.635,295.806,240.64,291.538,242.761,287.393ZM410.842,176.664c4.654-.315,9.373-.472,14.026-.467l0,2.3c-4.6,0-9.267.15-13.869.461ZM231.728,313.147l2.17.759c-1.52,4.346-2.909,8.8-4.128,13.235l-2.217-.608C228.786,322.045,230.19,317.541,231.728,313.147ZM438.892,176.69c4.643.323,9.338.81,13.954,1.448l-.316,2.277c-4.564-.631-9.206-1.113-13.8-1.432ZM224.3,340.175l2.253.457c-.914,4.513-1.686,9.115-2.292,13.68l-2.28-.3C222.594,349.392,223.374,344.738,224.3,340.175ZM466.667,180.534c4.56.952,9.144,2.073,13.624,3.331l-.622,2.213c-4.429-1.244-8.962-2.352-13.471-3.293ZM220.613,367.972l2.294.147c-.293,4.591-.431,9.257-.41,13.867l-2.3.01c-.022-4.662.118-9.381.415-14.024ZM493.652,188.114c4.387,1.562,8.774,3.3,13.038,5.151l-.917,2.109c-4.217-1.835-8.554-3.549-12.893-5.095ZM220.745,396.021l2.292-.168c.337,4.6.839,9.239,1.491,13.8l-2.276.325C221.593,405.366,221.085,400.671,220.745,396.021Zm298.6-196.727c4.129,2.144,8.236,4.46,12.206,6.881l-1.2,1.963c-3.925-2.393-7.985-4.683-12.068-6.8ZM224.717,423.8l2.248-.483c.967,4.508,2.1,9.04,3.377,13.471l-2.21.635C226.843,432.944,225.694,428.359,224.717,423.8ZM543.248,213.876c3.8,2.693,7.553,5.553,11.156,8.5l-1.456,1.78c-3.562-2.914-7.272-5.741-11.029-8.4ZM232.476,450.762l2.161-.787c1.576,4.327,3.323,8.653,5.191,12.858l-2.1.933C235.838,459.513,234.071,455.139,232.476,450.762ZM564.945,231.626c3.391,3.189,6.715,6.538,9.879,9.954l-1.687,1.563c-3.128-3.378-6.415-6.689-9.767-9.841ZM243.859,476.377l2.032-1.075c2.15,4.063,4.472,8.109,6.9,12.027l-1.954,1.211C248.381,484.578,246.034,480.486,243.859,476.377ZM583.995,252.189c2.918,3.618,5.754,7.389,8.429,11.208l-1.884,1.319c-2.645-3.777-5.449-7.5-8.335-11.083Zm-323.5,246.674c2.686,3.746,5.531,7.443,8.457,10.989l-1.773,1.463c-2.96-3.586-5.837-7.324-8.553-11.112Zm17.643,21.376c3.173,3.346,6.5,6.619,9.88,9.73l-1.556,1.692c-3.422-3.145-6.784-6.456-9.992-9.841Zm20.406,18.755c3.593,2.871,7.331,5.653,11.111,8.269l-1.308,1.891c-3.823-2.646-7.6-5.46-11.237-8.364Zm22.769,15.754c3.959,2.353,8.047,4.6,12.148,6.668l-1.036,2.053c-4.149-2.1-8.283-4.364-12.286-6.744Zm24.729,12.489c4.247,1.791,8.605,3.455,12.95,4.948l-.746,2.174c-4.4-1.509-8.8-3.192-13.1-5Zm26.212,9c4.445,1.2,8.989,2.252,13.507,3.142l-.444,2.256c-4.569-.9-9.165-1.969-13.661-3.177Zm27.2,5.356c4.574.58,9.222,1.01,13.814,1.277l-.133,2.3c-4.644-.27-9.345-.7-13.97-1.291Zm27.683,1.61c4.613-.049,9.277-.257,13.862-.62l.182,2.292c-4.638.366-9.355.577-14.021.626Zm27.652-2.19c4.561-.678,9.153-1.525,13.65-2.515l.494,2.245c-4.548,1-9.194,1.858-13.806,2.545Zm27.1-5.967c4.417-1.3,8.845-2.768,13.161-4.368l.8,2.156c-4.366,1.618-8.845,3.1-13.312,4.418Zm25.99-9.634c4.192-1.892,8.376-3.956,12.436-6.134L521.4,561.3c-4.106,2.2-8.338,4.29-12.576,6.2Z" transform="translate(-220.196 -120.5)" fill="#e6e6e6"/>
    </g>
    <g id="flower">
      <path id="Path_16" data-name="Path 16" d="M878.227,752.594c-.264-.431-6.485-10.818-8.641-32.388-1.978-19.789-.706-53.144,16.592-99.672,32.772-88.144-7.552-159.264-7.964-159.972l1.989-1.154c.1.18,10.51,18.312,16.656,47.186a205.856,205.856,0,0,1-8.526,114.742c-32.715,87.994-8.393,129.649-8.144,130.06Z" transform="translate(-220.196 -120.5)" fill="#3f3d56"/>
      <circle id="Ellipse_3" data-name="Ellipse 3" cx="14.945" cy="14.945" r="14.945" transform="translate(630.272 304.996)" fill="#6c63ff"/>
      <circle id="Ellipse_4" data-name="Ellipse 4" cx="14.945" cy="14.945" r="14.945" transform="translate(677.407 360.179)" fill="#6c63ff"/>
      <circle id="Ellipse_5" data-name="Ellipse 5" cx="14.945" cy="14.945" r="14.945" transform="translate(645.217 396.968)" fill="#6c63ff"/>
      <circle id="Ellipse_6" data-name="Ellipse 6" cx="14.945" cy="14.945" r="14.945" transform="translate(684.305 428.008)" fill="#6c63ff"/>
      <circle id="Ellipse_7" data-name="Ellipse 7" cx="14.945" cy="14.945" r="14.945" transform="translate(633.721 476.293)" fill="#6c63ff"/>
      <path id="Path_17" data-name="Path 17" d="M887.256,753.144s-14.945-36.789,29.891-64.38Z" transform="translate(-220.196 -120.5)" fill="#3f3d56"/>
      <path id="Path_18" data-name="Path 18" d="M868.875,752.477s-6.8-39.122-59.446-38.786Z" transform="translate(-220.196 -120.5)" fill="#3f3d56"/>
    </g>
    <g id="icon-social-3">
      <path id="Path_19" data-name="Path 19" d="M448.955,447.5a37,37,0,1,0,37,37A37,37,0,0,0,448.955,447.5Zm18.286,27.616c.019.4.029.809.029,1.218,0,12.483-9.491,26.876-26.866,26.876a26.371,26.371,0,0,1-14.442-4.268,19.124,19.124,0,0,0,2.251.136,18.915,18.915,0,0,0,11.723-4.044,9.449,9.449,0,0,1-8.819-6.558,8.9,8.9,0,0,0,1.774.175,9.5,9.5,0,0,0,2.483-.331,9.443,9.443,0,0,1-7.57-9.258v-.117a9.214,9.214,0,0,0,4.288,1.179,9.453,9.453,0,0,1-2.933-12.61,26.737,26.737,0,0,0,19.45,9.871,9.234,9.234,0,0,1-.244-2.154,9.432,9.432,0,0,1,16.322-6.451,18.745,18.745,0,0,0,5.993-2.29,9.468,9.468,0,0,1-4.151,5.223,19.072,19.072,0,0,0,5.418-1.491,19.2,19.2,0,0,1-4.707,4.892Z" transform="translate(-220.196 -120.5)" fill="#3f3d56"/>
    </g>
    <g id="icon-social-2">
      <circle id="Ellipse_8" data-name="Ellipse 8" cx="6.237" cy="6.237" r="6.237" transform="translate(104.772 255.435)" fill="#3f3d56"/>
      <path id="Path_21" data-name="Path 21" d="M330.8,345.5a37,37,0,1,0,37,37A37,37,0,0,0,330.8,345.5Zm19.11,44.468A10.946,10.946,0,0,1,339,400.882H323.409a10.946,10.946,0,0,1-10.914-10.914V374.377a10.946,10.946,0,0,1,10.914-10.914H339a10.946,10.946,0,0,1,10.914,10.914Z" transform="translate(-220.196 -120.5)" fill="#3f3d56"/>
      <path id="Path_20" data-name="Path 20" d="M339,366.581H323.409a7.819,7.819,0,0,0-7.8,7.8v15.591a7.819,7.819,0,0,0,7.8,7.8H339a7.819,7.819,0,0,0,7.8-7.8V374.377a7.819,7.819,0,0,0-7.8-7.8Zm-7.8,24.946a9.355,9.355,0,1,1,9.355-9.355,9.355,9.355,0,0,1-9.355,9.355Zm10.134-17.151a2.332,2.332,0,1,1,1.656-.683,2.339,2.339,0,0,1-1.656.683Z" transform="translate(-220.196 -120.5)" fill="#3f3d56"/>
    </g>
    <g id="icon-social-1">
      <path id="Path_22" data-name="Path 22" d="M440.8,240.5a37,37,0,1,0,37,37,37,37,0,0,0-37-37Zm.222,58.608a21.938,21.938,0,0,1-6.188-.9,18.142,18.142,0,0,0,2.193-4.677c.273-.974,1.54-6,1.54-6a6.264,6.264,0,0,0,5.33,2.719c7.016,0,11.781-6.393,11.781-14.958,0-6.47-5.486-12.5-13.818-12.5-10.368,0-15.6,7.435-15.6,13.633,0,3.761,1.423,7.094,4.473,8.341a.75.75,0,0,0,1.091-.546c.107-.39.341-1.355.448-1.754a1.067,1.067,0,0,0-.312-1.218,6.292,6.292,0,0,1-1.442-4.278,10.343,10.343,0,0,1,10.748-10.456c5.857,0,9.082,3.576,9.082,8.361,0,6.3-2.787,11.606-6.919,11.606a3.375,3.375,0,0,1-3.45-4.2c.653-2.767,1.929-5.749,1.929-7.747,0-1.783-.955-3.274-2.943-3.274-2.339,0-4.21,2.417-4.21,5.652a8.334,8.334,0,0,0,.7,3.45s-2.387,10.125-2.807,11.9a19.334,19.334,0,0,0-.38,5.009,21.807,21.807,0,1,1,8.751,1.842Z" transform="translate(-210.196 -118.5)" fill="#3f3d56"/>
    </g>
  </g>
</svg>
