<svg id="cloud-sign-2" xmlns="http://www.w3.org/2000/svg" width="174.082" height="60.643" viewBox="0 0 174.082 60.643">
  <path id="Path_638" data-name="Path 638" d="M730.178,296.828a18.569,18.569,0,0,1,3.871-3.652h-8.084A13.521,13.521,0,0,1,730.178,296.828Z" transform="translate(-713.009 -236.185)" fill="none"/>
  <path id="Path_639" data-name="Path 639" d="M692.137,293.176h-1.394c.3.21.6.42.886.647C691.792,293.6,691.966,293.391,692.137,293.176Z" transform="translate(-648.541 -236.185)" fill="none"/>
  <path id="Path_640" data-name="Path 640" d="M745.075,290.559a13.341,13.341,0,0,0-6.486,1.676h12.956a13.282,13.282,0,0,0-6.47-1.676Z" transform="translate(-738.589 -235.244)" fill="#e6e6e6"/>
  <path id="Path_641" data-name="Path 641" d="M703.507,287.941a18.329,18.329,0,0,0-10.588,3.352h21.162A18.325,18.325,0,0,0,703.507,287.941Z" transform="translate(-671.879 -234.302)" fill="#e6e6e6"/>
  <path id="Path_642" data-name="Path 642" d="M617.423,236.6a34.36,34.36,0,0,0-67.414-7.244c-.416-.015-.832-.032-1.252-.032A34.366,34.366,0,0,0,515.791,254a24.283,24.283,0,0,0-28.816,7.174h107.18a23.241,23.241,0,0,0,23.292-24.063Q617.437,236.854,617.423,236.6Z" transform="translate(-443.38 -204.179)" fill="#e6e6e6"/>
</svg>
