<svg xmlns="http://www.w3.org/2000/svg" width="174.082" height="60.643" viewBox="0 0 174.082 60.643">
  <g id="cloud-sign" transform="translate(-211.418 0.005)">
    <path id="Path_638" data-name="Path 638" d="M729.836,296.828a18.569,18.569,0,0,0-3.871-3.652h8.084A13.521,13.521,0,0,0,729.836,296.828Z" transform="translate(-361.505 -236.19)" fill="none"/>
    <path id="Path_639" data-name="Path 639" d="M690.743,293.176h1.394c-.3.21-.6.42-.886.647C691.088,293.6,690.913,293.391,690.743,293.176Z" transform="translate(-348.838 -236.191)" fill="none"/>
    <path id="Path_640" data-name="Path 640" d="M745.059,290.559a13.341,13.341,0,0,1,6.486,1.676H738.589a13.282,13.282,0,0,1,6.47-1.676Z" transform="translate(-366.045 -235.249)" fill="#e6e6e6"/>
    <path id="Path_641" data-name="Path 641" d="M703.493,287.941a18.329,18.329,0,0,1,10.588,3.352H692.919A18.325,18.325,0,0,1,703.493,287.941Z" transform="translate(-349.621 -234.308)" fill="#e6e6e6"/>
    <path id="Path_642" data-name="Path 642" d="M487.014,236.6a34.36,34.36,0,0,1,67.414-7.244c.416-.015.832-.032,1.252-.032A34.366,34.366,0,0,1,588.646,254a24.283,24.283,0,0,1,28.816,7.174H510.282a23.241,23.241,0,0,1-23.292-24.063Q487,236.854,487.014,236.6Z" transform="translate(-275.557 -204.184)" fill="#e6e6e6"/>
  </g>
</svg>
