<svg xmlns="http://www.w3.org/2000/svg" width="443" height="443" viewBox="0 0 443 443">
  <g id="sympol" transform="translate(-0.121 -0.061)">
    <g id="sym2" transform="translate(0)">
      <g id="circle" transform="translate(0 0)">
        <ellipse id="Ellipse_7" data-name="Ellipse 7" cx="7.5" cy="8" rx="7.5" ry="8" transform="translate(26.121 0.061)" fill="#bfbfbf"/>
        <ellipse id="Ellipse_8" data-name="Ellipse 8" cx="7.5" cy="8" rx="7.5" ry="8" transform="translate(0.121 0.061)" fill="#bfbfbf"/>
        <ellipse id="Ellipse_9" data-name="Ellipse 9" cx="7.5" cy="8" rx="7.5" ry="8" transform="translate(130.121 0.061)" fill="#bfbfbf"/>
        <ellipse id="Ellipse_10" data-name="Ellipse 10" cx="7.5" cy="8" rx="7.5" ry="8" transform="translate(104.121 0.061)" fill="#bfbfbf"/>
        <ellipse id="Ellipse_11" data-name="Ellipse 11" cx="7.5" cy="8" rx="7.5" ry="8" transform="translate(52.121 0.061)" fill="#bfbfbf"/>
        <ellipse id="Ellipse_12" data-name="Ellipse 12" cx="7.5" cy="8" rx="7.5" ry="8" transform="translate(78.121 0.061)" fill="#bfbfbf"/>
        <circle id="Ellipse_13" data-name="Ellipse 13" cx="8" cy="8" r="8" transform="translate(181.121 0.061)" fill="#bfbfbf"/>
        <ellipse id="Ellipse_14" data-name="Ellipse 14" cx="7.5" cy="8" rx="7.5" ry="8" transform="translate(156.121 0.061)" fill="#bfbfbf"/>
      </g>
      <g id="circle-2" data-name="circle" transform="translate(0 183.322)">
        <ellipse id="Ellipse_7-2" data-name="Ellipse 7" cx="7.5" cy="8" rx="7.5" ry="8" transform="translate(26.121 -0.261)" fill="#bfbfbf"/>
        <ellipse id="Ellipse_8-2" data-name="Ellipse 8" cx="7.5" cy="8" rx="7.5" ry="8" transform="translate(0.121 -0.261)" fill="#bfbfbf"/>
        <ellipse id="Ellipse_9-2" data-name="Ellipse 9" cx="7.5" cy="8" rx="7.5" ry="8" transform="translate(130.121 -0.261)" fill="#bfbfbf"/>
        <ellipse id="Ellipse_10-2" data-name="Ellipse 10" cx="7.5" cy="8" rx="7.5" ry="8" transform="translate(104.121 -0.261)" fill="#bfbfbf"/>
        <ellipse id="Ellipse_11-2" data-name="Ellipse 11" cx="7.5" cy="8" rx="7.5" ry="8" transform="translate(52.121 -0.261)" fill="#bfbfbf"/>
        <ellipse id="Ellipse_12-2" data-name="Ellipse 12" cx="7.5" cy="8" rx="7.5" ry="8" transform="translate(78.121 -0.261)" fill="#bfbfbf"/>
        <circle id="Ellipse_13-2" data-name="Ellipse 13" cx="8" cy="8" r="8" transform="translate(181.121 -0.261)" fill="#bfbfbf"/>
        <ellipse id="Ellipse_14-2" data-name="Ellipse 14" cx="7.5" cy="8" rx="7.5" ry="8" transform="translate(156.121 -0.261)" fill="#bfbfbf"/>
      </g>
      <g id="circle-3" data-name="circle" transform="translate(0 159.919)">
        <circle id="Ellipse_7-3" data-name="Ellipse 7" cx="7.5" cy="7.5" r="7.5" transform="translate(26.121 0.142)" fill="#bfbfbf"/>
        <circle id="Ellipse_8-3" data-name="Ellipse 8" cx="7.5" cy="7.5" r="7.5" transform="translate(0.121 0.142)" fill="#bfbfbf"/>
        <circle id="Ellipse_9-3" data-name="Ellipse 9" cx="7.5" cy="7.5" r="7.5" transform="translate(130.121 0.142)" fill="#bfbfbf"/>
        <circle id="Ellipse_10-3" data-name="Ellipse 10" cx="7.5" cy="7.5" r="7.5" transform="translate(104.121 0.142)" fill="#bfbfbf"/>
        <circle id="Ellipse_11-3" data-name="Ellipse 11" cx="7.5" cy="7.5" r="7.5" transform="translate(52.121 0.142)" fill="#bfbfbf"/>
        <circle id="Ellipse_12-3" data-name="Ellipse 12" cx="7.5" cy="7.5" r="7.5" transform="translate(78.121 0.142)" fill="#bfbfbf"/>
        <ellipse id="Ellipse_13-3" data-name="Ellipse 13" cx="8" cy="7.5" rx="8" ry="7.5" transform="translate(181.121 0.142)" fill="#bfbfbf"/>
        <circle id="Ellipse_14-3" data-name="Ellipse 14" cx="7.5" cy="7.5" r="7.5" transform="translate(156.121 0.142)" fill="#bfbfbf"/>
      </g>
      <g id="circle-4" data-name="circle" transform="translate(0 137.491)">
        <ellipse id="Ellipse_7-4" data-name="Ellipse 7" cx="7.5" cy="8" rx="7.5" ry="8" transform="translate(26.121 -0.43)" fill="#bfbfbf"/>
        <ellipse id="Ellipse_8-4" data-name="Ellipse 8" cx="7.5" cy="8" rx="7.5" ry="8" transform="translate(0.121 -0.43)" fill="#bfbfbf"/>
        <ellipse id="Ellipse_9-4" data-name="Ellipse 9" cx="7.5" cy="8" rx="7.5" ry="8" transform="translate(130.121 -0.43)" fill="#bfbfbf"/>
        <ellipse id="Ellipse_10-4" data-name="Ellipse 10" cx="7.5" cy="8" rx="7.5" ry="8" transform="translate(104.121 -0.43)" fill="#bfbfbf"/>
        <ellipse id="Ellipse_11-4" data-name="Ellipse 11" cx="7.5" cy="8" rx="7.5" ry="8" transform="translate(52.121 -0.43)" fill="#bfbfbf"/>
        <ellipse id="Ellipse_12-4" data-name="Ellipse 12" cx="7.5" cy="8" rx="7.5" ry="8" transform="translate(78.121 -0.43)" fill="#bfbfbf"/>
        <circle id="Ellipse_13-4" data-name="Ellipse 13" cx="8" cy="8" r="8" transform="translate(181.121 -0.43)" fill="#bfbfbf"/>
        <ellipse id="Ellipse_14-4" data-name="Ellipse 14" cx="7.5" cy="8" rx="7.5" ry="8" transform="translate(156.121 -0.43)" fill="#bfbfbf"/>
      </g>
      <g id="circle-5" data-name="circle" transform="translate(0 114.089)">
        <ellipse id="Ellipse_7-5" data-name="Ellipse 7" cx="7.5" cy="8" rx="7.5" ry="8" transform="translate(26.121 -0.027)" fill="#bfbfbf"/>
        <ellipse id="Ellipse_8-5" data-name="Ellipse 8" cx="7.5" cy="8" rx="7.5" ry="8" transform="translate(0.121 -0.027)" fill="#bfbfbf"/>
        <ellipse id="Ellipse_9-5" data-name="Ellipse 9" cx="7.5" cy="8" rx="7.5" ry="8" transform="translate(130.121 -0.027)" fill="#bfbfbf"/>
        <ellipse id="Ellipse_10-5" data-name="Ellipse 10" cx="7.5" cy="8" rx="7.5" ry="8" transform="translate(104.121 -0.027)" fill="#bfbfbf"/>
        <ellipse id="Ellipse_11-5" data-name="Ellipse 11" cx="7.5" cy="8" rx="7.5" ry="8" transform="translate(52.121 -0.027)" fill="#bfbfbf"/>
        <ellipse id="Ellipse_12-5" data-name="Ellipse 12" cx="7.5" cy="8" rx="7.5" ry="8" transform="translate(78.121 -0.027)" fill="#bfbfbf"/>
        <circle id="Ellipse_13-5" data-name="Ellipse 13" cx="8" cy="8" r="8" transform="translate(181.121 -0.027)" fill="#bfbfbf"/>
        <ellipse id="Ellipse_14-5" data-name="Ellipse 14" cx="7.5" cy="8" rx="7.5" ry="8" transform="translate(156.121 -0.027)" fill="#bfbfbf"/>
      </g>
      <g id="circle-6" data-name="circle" transform="translate(0 91.661)">
        <circle id="Ellipse_7-6" data-name="Ellipse 7" cx="7.5" cy="7.5" r="7.5" transform="translate(26.121 0.4)" fill="#bfbfbf"/>
        <circle id="Ellipse_8-6" data-name="Ellipse 8" cx="7.5" cy="7.5" r="7.5" transform="translate(0.121 0.4)" fill="#bfbfbf"/>
        <circle id="Ellipse_9-6" data-name="Ellipse 9" cx="7.5" cy="7.5" r="7.5" transform="translate(130.121 0.4)" fill="#bfbfbf"/>
        <circle id="Ellipse_10-6" data-name="Ellipse 10" cx="7.5" cy="7.5" r="7.5" transform="translate(104.121 0.4)" fill="#bfbfbf"/>
        <circle id="Ellipse_11-6" data-name="Ellipse 11" cx="7.5" cy="7.5" r="7.5" transform="translate(52.121 0.4)" fill="#bfbfbf"/>
        <circle id="Ellipse_12-6" data-name="Ellipse 12" cx="7.5" cy="7.5" r="7.5" transform="translate(78.121 0.4)" fill="#bfbfbf"/>
        <ellipse id="Ellipse_13-6" data-name="Ellipse 13" cx="8" cy="7.5" rx="8" ry="7.5" transform="translate(181.121 0.4)" fill="#bfbfbf"/>
        <circle id="Ellipse_14-6" data-name="Ellipse 14" cx="7.5" cy="7.5" r="7.5" transform="translate(156.121 0.4)" fill="#bfbfbf"/>
      </g>
      <g id="circle-7" data-name="circle" transform="translate(0 68.258)">
        <ellipse id="Ellipse_7-7" data-name="Ellipse 7" cx="7.5" cy="8" rx="7.5" ry="8" transform="translate(26.121 -0.197)" fill="#bfbfbf"/>
        <ellipse id="Ellipse_8-7" data-name="Ellipse 8" cx="7.5" cy="8" rx="7.5" ry="8" transform="translate(0.121 -0.197)" fill="#bfbfbf"/>
        <ellipse id="Ellipse_9-7" data-name="Ellipse 9" cx="7.5" cy="8" rx="7.5" ry="8" transform="translate(130.121 -0.197)" fill="#bfbfbf"/>
        <ellipse id="Ellipse_10-7" data-name="Ellipse 10" cx="7.5" cy="8" rx="7.5" ry="8" transform="translate(104.121 -0.197)" fill="#bfbfbf"/>
        <ellipse id="Ellipse_11-7" data-name="Ellipse 11" cx="7.5" cy="8" rx="7.5" ry="8" transform="translate(52.121 -0.197)" fill="#bfbfbf"/>
        <ellipse id="Ellipse_12-7" data-name="Ellipse 12" cx="7.5" cy="8" rx="7.5" ry="8" transform="translate(78.121 -0.197)" fill="#bfbfbf"/>
        <circle id="Ellipse_13-7" data-name="Ellipse 13" cx="8" cy="8" r="8" transform="translate(181.121 -0.197)" fill="#bfbfbf"/>
        <ellipse id="Ellipse_14-7" data-name="Ellipse 14" cx="7.5" cy="8" rx="7.5" ry="8" transform="translate(156.121 -0.197)" fill="#bfbfbf"/>
      </g>
      <g id="circle-8" data-name="circle" transform="translate(0 45.83)">
        <circle id="Ellipse_7-8" data-name="Ellipse 7" cx="7.5" cy="7.5" r="7.5" transform="translate(26.121 0.231)" fill="#bfbfbf"/>
        <circle id="Ellipse_8-8" data-name="Ellipse 8" cx="7.5" cy="7.5" r="7.5" transform="translate(0.121 0.231)" fill="#bfbfbf"/>
        <circle id="Ellipse_9-8" data-name="Ellipse 9" cx="7.5" cy="7.5" r="7.5" transform="translate(130.121 0.231)" fill="#bfbfbf"/>
        <circle id="Ellipse_10-8" data-name="Ellipse 10" cx="7.5" cy="7.5" r="7.5" transform="translate(104.121 0.231)" fill="#bfbfbf"/>
        <circle id="Ellipse_11-8" data-name="Ellipse 11" cx="7.5" cy="7.5" r="7.5" transform="translate(52.121 0.231)" fill="#bfbfbf"/>
        <circle id="Ellipse_12-8" data-name="Ellipse 12" cx="7.5" cy="7.5" r="7.5" transform="translate(78.121 0.231)" fill="#bfbfbf"/>
        <ellipse id="Ellipse_13-8" data-name="Ellipse 13" cx="8" cy="7.5" rx="8" ry="7.5" transform="translate(181.121 0.231)" fill="#bfbfbf"/>
        <circle id="Ellipse_14-8" data-name="Ellipse 14" cx="7.5" cy="7.5" r="7.5" transform="translate(156.121 0.231)" fill="#bfbfbf"/>
      </g>
      <g id="circle-9" data-name="circle" transform="translate(0 22.428)">
        <ellipse id="Ellipse_7-9" data-name="Ellipse 7" cx="7.5" cy="8" rx="7.5" ry="8" transform="translate(26.121 -0.366)" fill="#bfbfbf"/>
        <ellipse id="Ellipse_8-9" data-name="Ellipse 8" cx="7.5" cy="8" rx="7.5" ry="8" transform="translate(0.121 -0.366)" fill="#bfbfbf"/>
        <ellipse id="Ellipse_9-9" data-name="Ellipse 9" cx="7.5" cy="8" rx="7.5" ry="8" transform="translate(130.121 -0.366)" fill="#bfbfbf"/>
        <ellipse id="Ellipse_10-9" data-name="Ellipse 10" cx="7.5" cy="8" rx="7.5" ry="8" transform="translate(104.121 -0.366)" fill="#bfbfbf"/>
        <ellipse id="Ellipse_11-9" data-name="Ellipse 11" cx="7.5" cy="8" rx="7.5" ry="8" transform="translate(52.121 -0.366)" fill="#bfbfbf"/>
        <ellipse id="Ellipse_12-9" data-name="Ellipse 12" cx="7.5" cy="8" rx="7.5" ry="8" transform="translate(78.121 -0.366)" fill="#bfbfbf"/>
        <circle id="Ellipse_13-9" data-name="Ellipse 13" cx="8" cy="8" r="8" transform="translate(181.121 -0.366)" fill="#bfbfbf"/>
        <ellipse id="Ellipse_14-9" data-name="Ellipse 14" cx="7.5" cy="8" rx="7.5" ry="8" transform="translate(156.121 -0.366)" fill="#bfbfbf"/>
      </g>
      <g id="circle-10" data-name="circle" transform="translate(0 205.749)">
        <circle id="Ellipse_7-10" data-name="Ellipse 7" cx="7.5" cy="7.5" r="7.5" transform="translate(26.121 0.312)" fill="#bfbfbf"/>
        <circle id="Ellipse_8-10" data-name="Ellipse 8" cx="7.5" cy="7.5" r="7.5" transform="translate(0.121 0.312)" fill="#bfbfbf"/>
        <circle id="Ellipse_9-10" data-name="Ellipse 9" cx="7.5" cy="7.5" r="7.5" transform="translate(130.121 0.312)" fill="#bfbfbf"/>
        <circle id="Ellipse_10-10" data-name="Ellipse 10" cx="7.5" cy="7.5" r="7.5" transform="translate(104.121 0.312)" fill="#bfbfbf"/>
        <circle id="Ellipse_11-10" data-name="Ellipse 11" cx="7.5" cy="7.5" r="7.5" transform="translate(52.121 0.312)" fill="#bfbfbf"/>
        <circle id="Ellipse_12-10" data-name="Ellipse 12" cx="7.5" cy="7.5" r="7.5" transform="translate(78.121 0.312)" fill="#bfbfbf"/>
        <ellipse id="Ellipse_13-10" data-name="Ellipse 13" cx="8" cy="7.5" rx="8" ry="7.5" transform="translate(181.121 0.312)" fill="#bfbfbf"/>
        <circle id="Ellipse_14-10" data-name="Ellipse 14" cx="7.5" cy="7.5" r="7.5" transform="translate(156.121 0.312)" fill="#bfbfbf"/>
      </g>
    </g>
    <g id="sym1" transform="translate(245.729 221.351)">
      <g id="circle-11" data-name="circle" transform="translate(0 0)">
        <ellipse id="Ellipse_7-11" data-name="Ellipse 7" cx="7.5" cy="8" rx="7.5" ry="8" transform="translate(26.392 -0.29)" fill="rgba(196,196,196,0.27)"/>
        <ellipse id="Ellipse_8-11" data-name="Ellipse 8" cx="7.5" cy="8" rx="7.5" ry="8" transform="translate(0.392 -0.29)" fill="rgba(196,196,196,0.27)"/>
        <circle id="Ellipse_9-11" data-name="Ellipse 9" cx="8" cy="8" r="8" transform="translate(129.392 -0.29)" fill="rgba(196,196,196,0.27)"/>
        <ellipse id="Ellipse_10-11" data-name="Ellipse 10" cx="7.5" cy="8" rx="7.5" ry="8" transform="translate(104.392 -0.29)" fill="rgba(196,196,196,0.27)"/>
        <circle id="Ellipse_11-11" data-name="Ellipse 11" cx="8" cy="8" r="8" transform="translate(51.392 -0.29)" fill="rgba(196,196,196,0.27)"/>
        <ellipse id="Ellipse_12-11" data-name="Ellipse 12" cx="7.5" cy="8" rx="7.5" ry="8" transform="translate(78.392 -0.29)" fill="rgba(196,196,196,0.27)"/>
        <circle id="Ellipse_13-11" data-name="Ellipse 13" cx="8" cy="8" r="8" transform="translate(181.392 -0.29)" fill="rgba(196,196,196,0.27)"/>
        <ellipse id="Ellipse_14-11" data-name="Ellipse 14" cx="7" cy="8" rx="7" ry="8" transform="translate(156.392 -0.29)" fill="rgba(196,196,196,0.27)"/>
      </g>
      <g id="circle-12" data-name="circle" transform="translate(0 183.322)">
        <circle id="Ellipse_7-12" data-name="Ellipse 7" cx="7.5" cy="7.5" r="7.5" transform="translate(26.392 0.388)" fill="rgba(196,196,196,0.27)"/>
        <circle id="Ellipse_8-12" data-name="Ellipse 8" cx="7.5" cy="7.5" r="7.5" transform="translate(0.392 0.388)" fill="rgba(196,196,196,0.27)"/>
        <ellipse id="Ellipse_9-12" data-name="Ellipse 9" cx="8" cy="7.5" rx="8" ry="7.5" transform="translate(129.392 0.388)" fill="rgba(196,196,196,0.27)"/>
        <circle id="Ellipse_10-12" data-name="Ellipse 10" cx="7.5" cy="7.5" r="7.5" transform="translate(104.392 0.388)" fill="rgba(196,196,196,0.27)"/>
        <ellipse id="Ellipse_11-12" data-name="Ellipse 11" cx="8" cy="7.5" rx="8" ry="7.5" transform="translate(51.392 0.388)" fill="rgba(196,196,196,0.27)"/>
        <circle id="Ellipse_12-12" data-name="Ellipse 12" cx="7.5" cy="7.5" r="7.5" transform="translate(78.392 0.388)" fill="rgba(196,196,196,0.27)"/>
        <ellipse id="Ellipse_13-12" data-name="Ellipse 13" cx="8" cy="7.5" rx="8" ry="7.5" transform="translate(181.392 0.388)" fill="rgba(196,196,196,0.27)"/>
        <ellipse id="Ellipse_14-12" data-name="Ellipse 14" cx="7" cy="7.5" rx="7" ry="7.5" transform="translate(156.392 0.388)" fill="rgba(196,196,196,0.27)"/>
      </g>
      <g id="circle-13" data-name="circle" transform="translate(0 159.919)">
        <ellipse id="Ellipse_7-13" data-name="Ellipse 7" cx="7.5" cy="8" rx="7.5" ry="8" transform="translate(26.392 -0.209)" fill="rgba(196,196,196,0.27)"/>
        <ellipse id="Ellipse_8-13" data-name="Ellipse 8" cx="7.5" cy="8" rx="7.5" ry="8" transform="translate(0.392 -0.209)" fill="rgba(196,196,196,0.27)"/>
        <circle id="Ellipse_9-13" data-name="Ellipse 9" cx="8" cy="8" r="8" transform="translate(129.392 -0.209)" fill="rgba(196,196,196,0.27)"/>
        <ellipse id="Ellipse_10-13" data-name="Ellipse 10" cx="7.5" cy="8" rx="7.5" ry="8" transform="translate(104.392 -0.209)" fill="rgba(196,196,196,0.27)"/>
        <circle id="Ellipse_11-13" data-name="Ellipse 11" cx="8" cy="8" r="8" transform="translate(51.392 -0.209)" fill="rgba(196,196,196,0.27)"/>
        <ellipse id="Ellipse_12-13" data-name="Ellipse 12" cx="7.5" cy="8" rx="7.5" ry="8" transform="translate(78.392 -0.209)" fill="rgba(196,196,196,0.27)"/>
        <circle id="Ellipse_13-13" data-name="Ellipse 13" cx="8" cy="8" r="8" transform="translate(181.392 -0.209)" fill="rgba(196,196,196,0.27)"/>
        <ellipse id="Ellipse_14-13" data-name="Ellipse 14" cx="7" cy="8" rx="7" ry="8" transform="translate(156.392 -0.209)" fill="rgba(196,196,196,0.27)"/>
      </g>
      <g id="circle-14" data-name="circle" transform="translate(0 137.491)">
        <circle id="Ellipse_7-14" data-name="Ellipse 7" cx="7.5" cy="7.5" r="7.5" transform="translate(26.392 0.219)" fill="rgba(196,196,196,0.27)"/>
        <circle id="Ellipse_8-14" data-name="Ellipse 8" cx="7.5" cy="7.5" r="7.5" transform="translate(0.392 0.219)" fill="rgba(196,196,196,0.27)"/>
        <ellipse id="Ellipse_9-14" data-name="Ellipse 9" cx="8" cy="7.5" rx="8" ry="7.5" transform="translate(129.392 0.219)" fill="rgba(196,196,196,0.27)"/>
        <circle id="Ellipse_10-14" data-name="Ellipse 10" cx="7.5" cy="7.5" r="7.5" transform="translate(104.392 0.219)" fill="rgba(196,196,196,0.27)"/>
        <ellipse id="Ellipse_11-14" data-name="Ellipse 11" cx="8" cy="7.5" rx="8" ry="7.5" transform="translate(51.392 0.219)" fill="rgba(196,196,196,0.27)"/>
        <circle id="Ellipse_12-14" data-name="Ellipse 12" cx="7.5" cy="7.5" r="7.5" transform="translate(78.392 0.219)" fill="rgba(196,196,196,0.27)"/>
        <ellipse id="Ellipse_13-14" data-name="Ellipse 13" cx="8" cy="7.5" rx="8" ry="7.5" transform="translate(181.392 0.219)" fill="rgba(196,196,196,0.27)"/>
        <ellipse id="Ellipse_14-14" data-name="Ellipse 14" cx="7" cy="7.5" rx="7" ry="7.5" transform="translate(156.392 0.219)" fill="rgba(196,196,196,0.27)"/>
      </g>
      <g id="circle-15" data-name="circle" transform="translate(0 114.089)">
        <ellipse id="Ellipse_7-15" data-name="Ellipse 7" cx="7.5" cy="8" rx="7.5" ry="8" transform="translate(26.392 -0.379)" fill="rgba(196,196,196,0.27)"/>
        <ellipse id="Ellipse_8-15" data-name="Ellipse 8" cx="7.5" cy="8" rx="7.5" ry="8" transform="translate(0.392 -0.379)" fill="rgba(196,196,196,0.27)"/>
        <circle id="Ellipse_9-15" data-name="Ellipse 9" cx="8" cy="8" r="8" transform="translate(129.392 -0.379)" fill="rgba(196,196,196,0.27)"/>
        <ellipse id="Ellipse_10-15" data-name="Ellipse 10" cx="7.5" cy="8" rx="7.5" ry="8" transform="translate(104.392 -0.379)" fill="rgba(196,196,196,0.27)"/>
        <circle id="Ellipse_11-15" data-name="Ellipse 11" cx="8" cy="8" r="8" transform="translate(51.392 -0.379)" fill="rgba(196,196,196,0.27)"/>
        <ellipse id="Ellipse_12-15" data-name="Ellipse 12" cx="7.5" cy="8" rx="7.5" ry="8" transform="translate(78.392 -0.379)" fill="rgba(196,196,196,0.27)"/>
        <circle id="Ellipse_13-15" data-name="Ellipse 13" cx="8" cy="8" r="8" transform="translate(181.392 -0.379)" fill="rgba(196,196,196,0.27)"/>
        <ellipse id="Ellipse_14-15" data-name="Ellipse 14" cx="7" cy="8" rx="7" ry="8" transform="translate(156.392 -0.379)" fill="rgba(196,196,196,0.27)"/>
      </g>
      <g id="circle-16" data-name="circle" transform="translate(0 91.661)">
        <ellipse id="Ellipse_7-16" data-name="Ellipse 7" cx="7.5" cy="8" rx="7.5" ry="8" transform="translate(26.392 0.049)" fill="rgba(196,196,196,0.27)"/>
        <ellipse id="Ellipse_8-16" data-name="Ellipse 8" cx="7.5" cy="8" rx="7.5" ry="8" transform="translate(0.392 0.049)" fill="rgba(196,196,196,0.27)"/>
        <circle id="Ellipse_9-16" data-name="Ellipse 9" cx="8" cy="8" r="8" transform="translate(129.392 0.049)" fill="rgba(196,196,196,0.27)"/>
        <ellipse id="Ellipse_10-16" data-name="Ellipse 10" cx="7.5" cy="8" rx="7.5" ry="8" transform="translate(104.392 0.049)" fill="rgba(196,196,196,0.27)"/>
        <circle id="Ellipse_11-16" data-name="Ellipse 11" cx="8" cy="8" r="8" transform="translate(51.392 0.049)" fill="rgba(196,196,196,0.27)"/>
        <ellipse id="Ellipse_12-16" data-name="Ellipse 12" cx="7.5" cy="8" rx="7.5" ry="8" transform="translate(78.392 0.049)" fill="rgba(196,196,196,0.27)"/>
        <circle id="Ellipse_13-16" data-name="Ellipse 13" cx="8" cy="8" r="8" transform="translate(181.392 0.049)" fill="rgba(196,196,196,0.27)"/>
        <ellipse id="Ellipse_14-16" data-name="Ellipse 14" cx="7" cy="8" rx="7" ry="8" transform="translate(156.392 0.049)" fill="rgba(196,196,196,0.27)"/>
      </g>
      <g id="circle-17" data-name="circle" transform="translate(0 68.258)">
        <circle id="Ellipse_7-17" data-name="Ellipse 7" cx="7.5" cy="7.5" r="7.5" transform="translate(26.392 0.452)" fill="rgba(196,196,196,0.27)"/>
        <circle id="Ellipse_8-17" data-name="Ellipse 8" cx="7.5" cy="7.5" r="7.5" transform="translate(0.392 0.452)" fill="rgba(196,196,196,0.27)"/>
        <ellipse id="Ellipse_9-17" data-name="Ellipse 9" cx="8" cy="7.5" rx="8" ry="7.5" transform="translate(129.392 0.452)" fill="rgba(196,196,196,0.27)"/>
        <circle id="Ellipse_10-17" data-name="Ellipse 10" cx="7.5" cy="7.5" r="7.5" transform="translate(104.392 0.452)" fill="rgba(196,196,196,0.27)"/>
        <ellipse id="Ellipse_11-17" data-name="Ellipse 11" cx="8" cy="7.5" rx="8" ry="7.5" transform="translate(51.392 0.452)" fill="rgba(196,196,196,0.27)"/>
        <circle id="Ellipse_12-17" data-name="Ellipse 12" cx="7.5" cy="7.5" r="7.5" transform="translate(78.392 0.452)" fill="rgba(196,196,196,0.27)"/>
        <ellipse id="Ellipse_13-17" data-name="Ellipse 13" cx="8" cy="7.5" rx="8" ry="7.5" transform="translate(181.392 0.452)" fill="rgba(196,196,196,0.27)"/>
        <ellipse id="Ellipse_14-17" data-name="Ellipse 14" cx="7" cy="7.5" rx="7" ry="7.5" transform="translate(156.392 0.452)" fill="rgba(196,196,196,0.27)"/>
      </g>
      <g id="circle-18" data-name="circle" transform="translate(0 45.83)">
        <ellipse id="Ellipse_7-18" data-name="Ellipse 7" cx="7.5" cy="8" rx="7.5" ry="8" transform="translate(26.392 -0.12)" fill="rgba(196,196,196,0.27)"/>
        <ellipse id="Ellipse_8-18" data-name="Ellipse 8" cx="7.5" cy="8" rx="7.5" ry="8" transform="translate(0.392 -0.12)" fill="rgba(196,196,196,0.27)"/>
        <circle id="Ellipse_9-18" data-name="Ellipse 9" cx="8" cy="8" r="8" transform="translate(129.392 -0.12)" fill="rgba(196,196,196,0.27)"/>
        <ellipse id="Ellipse_10-18" data-name="Ellipse 10" cx="7.5" cy="8" rx="7.5" ry="8" transform="translate(104.392 -0.12)" fill="rgba(196,196,196,0.27)"/>
        <circle id="Ellipse_11-18" data-name="Ellipse 11" cx="8" cy="8" r="8" transform="translate(51.392 -0.12)" fill="rgba(196,196,196,0.27)"/>
        <ellipse id="Ellipse_12-18" data-name="Ellipse 12" cx="7.5" cy="8" rx="7.5" ry="8" transform="translate(78.392 -0.12)" fill="rgba(196,196,196,0.27)"/>
        <circle id="Ellipse_13-18" data-name="Ellipse 13" cx="8" cy="8" r="8" transform="translate(181.392 -0.12)" fill="rgba(196,196,196,0.27)"/>
        <ellipse id="Ellipse_14-18" data-name="Ellipse 14" cx="7" cy="8" rx="7" ry="8" transform="translate(156.392 -0.12)" fill="rgba(196,196,196,0.27)"/>
      </g>
      <g id="circle-19" data-name="circle" transform="translate(0 22.428)">
        <circle id="Ellipse_7-19" data-name="Ellipse 7" cx="7.5" cy="7.5" r="7.5" transform="translate(26.392 0.282)" fill="rgba(196,196,196,0.27)"/>
        <circle id="Ellipse_8-19" data-name="Ellipse 8" cx="7.5" cy="7.5" r="7.5" transform="translate(0.392 0.282)" fill="rgba(196,196,196,0.27)"/>
        <ellipse id="Ellipse_9-19" data-name="Ellipse 9" cx="8" cy="7.5" rx="8" ry="7.5" transform="translate(129.392 0.282)" fill="rgba(196,196,196,0.27)"/>
        <circle id="Ellipse_10-19" data-name="Ellipse 10" cx="7.5" cy="7.5" r="7.5" transform="translate(104.392 0.282)" fill="rgba(196,196,196,0.27)"/>
        <ellipse id="Ellipse_11-19" data-name="Ellipse 11" cx="8" cy="7.5" rx="8" ry="7.5" transform="translate(51.392 0.282)" fill="rgba(196,196,196,0.27)"/>
        <circle id="Ellipse_12-19" data-name="Ellipse 12" cx="7.5" cy="7.5" r="7.5" transform="translate(78.392 0.282)" fill="rgba(196,196,196,0.27)"/>
        <ellipse id="Ellipse_13-19" data-name="Ellipse 13" cx="8" cy="7.5" rx="8" ry="7.5" transform="translate(181.392 0.282)" fill="rgba(196,196,196,0.27)"/>
        <ellipse id="Ellipse_14-19" data-name="Ellipse 14" cx="7" cy="7.5" rx="7" ry="7.5" transform="translate(156.392 0.282)" fill="rgba(196,196,196,0.27)"/>
      </g>
      <g id="circle-20" data-name="circle" transform="translate(0 205.749)">
        <ellipse id="Ellipse_7-20" data-name="Ellipse 7" cx="7.5" cy="8" rx="7.5" ry="8" transform="translate(26.392 -0.039)" fill="rgba(196,196,196,0.27)"/>
        <ellipse id="Ellipse_8-20" data-name="Ellipse 8" cx="7.5" cy="8" rx="7.5" ry="8" transform="translate(0.392 -0.039)" fill="rgba(196,196,196,0.27)"/>
        <circle id="Ellipse_9-20" data-name="Ellipse 9" cx="8" cy="8" r="8" transform="translate(129.392 -0.039)" fill="rgba(196,196,196,0.27)"/>
        <ellipse id="Ellipse_10-20" data-name="Ellipse 10" cx="7.5" cy="8" rx="7.5" ry="8" transform="translate(104.392 -0.039)" fill="rgba(196,196,196,0.27)"/>
        <circle id="Ellipse_11-20" data-name="Ellipse 11" cx="8" cy="8" r="8" transform="translate(51.392 -0.039)" fill="rgba(196,196,196,0.27)"/>
        <ellipse id="Ellipse_12-20" data-name="Ellipse 12" cx="7.5" cy="8" rx="7.5" ry="8" transform="translate(78.392 -0.039)" fill="rgba(196,196,196,0.27)"/>
        <circle id="Ellipse_13-20" data-name="Ellipse 13" cx="8" cy="8" r="8" transform="translate(181.392 -0.039)" fill="rgba(196,196,196,0.27)"/>
        <ellipse id="Ellipse_14-20" data-name="Ellipse 14" cx="7" cy="8" rx="7" ry="8" transform="translate(156.392 -0.039)" fill="rgba(196,196,196,0.27)"/>
      </g>
    </g>
  </g>
</svg>
