<svg id="music-women" xmlns="http://www.w3.org/2000/svg" width="160.378" height="514.385" viewBox="0 0 160.378 514.385">
  <path id="music-4" d="M834.719,146.142l.03-.005-4.486-26.228-24.808,7.881,3.712,23.459a6.375,6.375,0,1,0,2.561,3.148l.023,0-3.984-25.176,20.863-6.628,3.546,20.733a6.361,6.361,0,1,0,2.542,2.819Z" transform="translate(-674.923 -119.908)" fill="#6c63ff"/>
  <path id="music-1" d="M1019.817,161.784l.03-.005-4.486-26.228-24.808,7.881,3.712,23.459a6.375,6.375,0,1,0,2.561,3.148l.023,0-3.984-25.176,20.863-6.628,3.547,20.733a6.361,6.361,0,1,0,2.542,2.819Z" transform="translate(-983.936 -125.514)" fill="#6c63ff"/>
  <path id="music-3" d="M901.908,194.483l.018,0-3.2-20.2-1.578.25,2.771,17.512a4.943,4.943,0,1,0,1.986,2.441Z" transform="translate(-798.498 -148.271)" fill="#6c63ff"/>
  <path id="music-2" d="M944,163.919a4.934,4.934,0,1,0-2.3,4.161l-2.771,17.512,1.579.25,3.2-20.2-.018,0A4.9,4.9,0,0,0,944,163.919Z" transform="translate(-868.228 -132.428)" fill="#6c63ff"/>
  <path id="Path_501" data-name="Path 501" d="M473.448,550.093l9.352,14.029,14.028-10.911-9.352-11.691Z" transform="translate(-407.713 -120.949)" fill="#ffb8b8"/>
  <path id="Path_502" data-name="Path 502" d="M641.093,663.626s-13.394.623-9.618,7.7,6.721,47.03,17.5,44.716,20.546-14.559,20.426-22.988-1.469-12.085-1.469-12.085-2.889-5.579-.966-7.12,2.65-11.279-1.932-14.24-17.824-6.881-17.824-6.881S645.866,664.854,641.093,663.626Z" transform="translate(-564.198 -227.98)" fill="#2f2e41"/>
  <path id="Path_503" data-name="Path 503" d="M499.643,605.9l-3.118,17.145,16.366,1.559V611.35Z" transform="translate(-415.983 -144.018)" fill="#ffb8b8"/>
  <path id="Path_504" data-name="Path 504" d="M577.149,346.028s-8.573,28.836-10.911,45.981c0,0-46.761,63.127-38.188,90.4s33.512,81.831,33.512,81.831,42.085-17.146,50.657-26.5l-31.174-44.423s4.676-5.455-2.338-8.573-.779-7.014-.779-7.014,13.249-44.423,26.5-49.1l45.981-9.352s-3.117-66.244-14.028-77.934C636.379,341.352,581.824,342.132,577.149,346.028Z" transform="translate(-527 -116.397)" fill="#2f2e41"/>
  <path id="Path_505" data-name="Path 505" d="M640.577,722.892s-7.793-10.911-11.69-3.9-35.85,31.174-28.056,38.967,23.38,9.352,30.394,4.676,9.352-7.793,9.352-7.793,3.117-5.456,5.456-4.676,10.911-3.9,10.911-9.352-3.9-18.7-3.9-18.7S642.136,727.568,640.577,722.892Z" transform="translate(-553.021 -250.884)" fill="#2f2e41"/>
  <path id="Path_506" data-name="Path 506" d="M645.238,457.134l10.911,94.3s-6.235,26.5-7.793,46.761,0,19.484,0,19.484,35.071,14.028,41.305,4.676,3.117-169.118,3.117-169.118l-18.7-17.146Z" transform="translate(-569.371 -150.347)" fill="#2f2e41"/>
  <path id="Path_507" data-name="Path 507" d="M613.806,127.855c8.091-19.09,28.686-22.7,28.686-22.7s19.83-5.29,36.391,19.9c15.436,23.484,35.342,45.486,10.1,54.859l-6.668-14-.8,16.117a102.778,102.778,0,0,1-11.114,1.686c-28,2.845-54.4,7.575-54.885-2.545C614.864,167.725,606.022,146.224,613.806,127.855Z" transform="translate(-556.965 -31.59)" fill="#2f2e41"/>
  <circle id="Ellipse_92" data-name="Ellipse 92" cx="22.601" cy="22.601" r="22.601" transform="translate(67.294 88.57)" fill="#ffb8b8"/>
  <path id="Path_508" data-name="Path 508" d="M655.2,185.62s-.39,22.991-2.728,28.446,41.7-4.286,41.7-4.286-15.587-10.911-17.925-25.718Z" transform="translate(-571.932 -60.031)" fill="#ffb8b8"/>
  <path id="Path_509" data-name="Path 509" d="M635.74,214.5l-4.256-3.13-30.035,1.572-6.235,68.582s-17.925,21.042,3.9,21.042,42.085-10.132,57.672-3.117,28.836-74.038,28.836-74.038l-23.3-14.041S652.107,223.852,635.74,214.5Z" transform="translate(-548.963 -69.817)" fill="#575a89"/>
  <path id="Path_510" data-name="Path 510" d="M621,302.485l43.643,9.352v10.131L621,323.527S616.324,305.6,621,302.485Z" transform="translate(-559.94 -102.468)" fill="#ffb8b8"/>
  <path id="Path_511" data-name="Path 511" d="M606.6,217.716l-8.573-3.9s-10.131,2.338-10.911,10.911-15.587,63.906-3.9,66.244,27.277,2.338,27.277,2.338-10.131-14.028,2.338-21.822l-9.352-4.676s-9.352-21.042-3.117-31.953S606.6,217.716,606.6,217.716Z" transform="translate(-545.543 -70.694)" fill="#575a89"/>
  <path id="Path_512" data-name="Path 512" d="M466.167,19.245l20.64-10.812,28.5,4.423,5.9,26.046-14.68-.565-4.1-9.569V38.18l-6.773-.261-3.932-15.235L489.264,38.9l-24.08-.491Z" transform="translate(-404.751 70.085)" fill="#2f2e41"/>
  <ellipse id="Ellipse_93" data-name="Ellipse 93" cx="4.156" cy="7.274" rx="4.156" ry="7.274" transform="translate(108.47 101.694)" fill="#ffb8b8"/>
  <circle id="Ellipse_94" data-name="Ellipse 94" cx="2.837" cy="2.837" r="2.837" transform="translate(110.189 108.443)" fill="#fff"/>
  <ellipse id="Ellipse_95" data-name="Ellipse 95" cx="0.461" cy="1.383" rx="0.461" ry="1.383" transform="translate(113.782 109.47)" fill="#2f2e41"/>
  <path id="Path_513" data-name="Path 513" d="M704.122,173.374h0a.726.726,0,0,1-.726-.726l-.726-5.806h2.177v5.806A.726.726,0,0,1,704.122,173.374Z" transform="translate(-589.953 -53.86)" fill="#fff"/>
  <path id="Path_514" data-name="Path 514" d="M456.613,148.149l-7.359,31.89h17.172l-13.492-3.066Z" transform="translate(-399.043 20.017)" opacity="0.1"/>
  <path id="Path_515" data-name="Path 515" d="M736.032,324.357l-.163-.147,4.028-4.47a3.483,3.483,0,0,0-.255-4.918l-9.469-8.534a3.482,3.482,0,0,0-4.918.255l-22.1,24.521a3.483,3.483,0,0,0,.255,4.918l9.47,8.535a3.482,3.482,0,0,0,4.918-.256l15.2-16.87.163.147Z" transform="translate(-589.805 -103.51)" fill="#3f3d56"/>
  <circle id="Ellipse_96" data-name="Ellipse 96" cx="2.244" cy="2.244" r="2.244" transform="translate(136.554 211.96)" fill="#6c63ff"/>
  <path id="Path_516" data-name="Path 516" d="M713.567,322.487s26.567,6.43,20.446,15.6-30.287-7.589-30.287-7.589Z" transform="translate(-590.33 -109.636)" fill="#ffb8b8"/>
  <path id="Path_517" data-name="Path 517" d="M709.942,233.252h7.014s7.793,8.573,6.235,16.366-6.235,44.423-6.235,44.423-23.38,21.822-35.071,10.132-3.117-22.6-3.117-22.6,15.587,12.469,24.16-3.9Z" transform="translate(-580.301 -77.658)" fill="#575a89"/>
  <path id="Path_518" data-name="Path 518" d="M704.069,267.279l5.368-53.034s11.259-33.48.268-34.3-11.763,31.726-11.763,31.726L678.8,269.7S689.3,279.992,704.069,267.279Z" transform="translate(-581.398 -58.55)" fill="#ffb8b8"/>
</svg>
