<svg xmlns="http://www.w3.org/2000/svg" width="508.266" height="440.947" viewBox="0 0 508.266 440.947">
  <g id="people" transform="translate(0 0)">
    <g id="man" transform="translate(130.885 0)">
      <path id="Path_1" data-name="Path 1" d="M532.306,551.064c1.285-.806,2.579-1.649,3.847-2.5l.861,1.275c-1.282.865-2.59,1.717-3.89,2.533Z" transform="translate(-454.353 -262.138)" fill="#e6e6e6"/>
      <path id="Path_3" data-name="Path 3" d="M598.285,276.234l1.318-.793c.8,1.331,1.584,2.682,2.327,4.016l-1.344.748C599.851,278.885,599.077,277.549,598.285,276.234Z" transform="translate(-476.185 -171.767)" fill="#e6e6e6"/>
      <ellipse id="Ellipse_1" data-name="Ellipse 1" cx="188.69" cy="11.375" rx="188.69" ry="11.375" transform="translate(0 418.197)" fill="#3f3d56"/>
      <path id="Path_4" data-name="Path 4" d="M692.075,275.3s5.287,68.73-2.115,70.845-33.836,17.976-76.132,13.746c0,0-41.238,22.205-34.894,1.057s34.894-15.861,34.894-15.861,50.755-10.574,52.869-17.976-6.344-38.066-3.172-39.123S692.075,275.3,692.075,275.3Z" transform="translate(-469.562 -171.72)" fill="#a0616a"/>
      <path id="Path_5" data-name="Path 5" d="M587.619,376.076h0l14.2-3.288a3.1,3.1,0,0,1,3.49,1.672L619.85,404.62a2.5,2.5,0,0,1-1.571,3.5l-14.429,4.1a3.308,3.308,0,0,1-3.943-1.874l-9.28-21.555-.283.157-1.766-4.084.294-.15-2.59-6.017a1.908,1.908,0,0,1,1.337-2.616Z" transform="translate(-472.161 -203.952)" fill="#3f3d56"/>
      <path id="Path_6" data-name="Path 6" d="M600.838,374.283l1.657-.384a2.141,2.141,0,0,1,2.418,1.169l14.2,29.966a1.327,1.327,0,0,1-.816,1.838L603.966,411.2a1.718,1.718,0,0,1-2.075-.967l-13.431-31.26a1.5,1.5,0,0,1,1.043-2.06l1.572-.364a.71.71,0,0,1,.787.357h0a.627.627,0,0,0,.695.315l7.464-1.729A1.072,1.072,0,0,0,600.838,374.283Z" transform="translate(-472.893 -204.328)" fill="#6c63ff"/>
      <path id="Path_7" data-name="Path 7" d="M653.7,452.819s4.122,99.295,10.466,114.1c5.285,12.331,8.368,52.54,9.251,65.629.177,2.625.266,4.159.266,4.159s16.918,0,17.976-4.23,4.229-50.755,0-65.558,5.394-117.27,5.394-117.27Z" transform="translate(-494.519 -229.41)" fill="#2f2e41"/>
      <path id="Path_8" data-name="Path 8" d="M669.55,720.578s-10.574,3.172-12.689,7.4-37.009,11.631-26.435,16.918,42.3-4.229,42.3-4.229,16.918-1.057,15.861-7.4-4.908-14.161-4.908-14.161Z" transform="translate(-486.161 -318.57)" fill="#2f2e41"/>
      <path id="Path_9" data-name="Path 9" d="M713.8,737.592s-10.574,3.172-12.689,7.4-37.009,11.631-26.435,16.918,42.3-4.23,42.3-4.23,16.918-1.057,15.861-7.4-4.908-14.162-4.908-14.162Z" transform="translate(-500.802 -324.199)" fill="#2f2e41"/>
      <path id="Path_10" data-name="Path 10" d="M667.757,446.755l14.8,25.377,24.706,88.232s-2.5,80.95.671,80.95,20.09,5.287,21.148,0c.893-4.466,12.736-47.247,6.833-75.722a364.122,364.122,0,0,1-7.388-54.629l-2.617-49.406s10.574-19.033-1.057-22.205S667.757,446.755,667.757,446.755Z" transform="translate(-499.172 -225.808)" fill="#2f2e41"/>
      <circle id="Ellipse_2" data-name="Ellipse 2" cx="25.377" cy="25.377" r="25.377" transform="translate(156.954 7.355)" fill="#a0616a"/>
      <path id="Path_11" data-name="Path 11" d="M683.56,190s4.23,33.837,3.172,35.951,25.377-23.263,25.377-23.263-9.516-14.8-7.4-22.205Z" transform="translate(-504.401 -140.347)" fill="#a0616a"/>
      <path id="Path_12" data-name="Path 12" d="M731.794,232.724s-29.607-21.148-30.664-25.377l-22.205,19.033-3.773-4.491s-17.375,17.18-17.375,24.582-1.057,29.607,2.115,35.951-9.516,86.706-9.516,86.706,10.574,9.516,11.631,10.574,43.353-6.344,43.353-6.344,21.148-2.115,21.148-5.287-6.344-50.755-4.229-63.443S731.794,232.724,731.794,232.724Z" transform="translate(-493.42 -149.236)" fill="#d0cde1"/>
      <path id="Path_13" data-name="Path 13" d="M725.26,289.52s5.287,68.73-2.115,70.845-33.837,17.976-76.132,13.746c0,0-41.238,22.205-34.894,1.057s34.894-15.861,34.894-15.861,50.755-10.574,52.869-17.976-6.344-38.066-3.172-39.123S725.26,289.52,725.26,289.52Z" transform="translate(-480.543 -176.426)" fill="#a0616a"/>
      <path id="Path_14" data-name="Path 14" d="M662.887,140.555c3.469-1.235,7.3-1.869,10.833-.845,5.006,1.449,8.473,5.837,12.212,9.466s8.983,6.846,13.907,5.139a8.153,8.153,0,0,1,1.558-6.022,5.539,5.539,0,0,0,1.383-2.3c.21-1.359-.933-2.531-1.275-3.863-.6-2.334,1.046-5.53-.979-6.838-.534-.345-1.211-.424-1.732-.789-2.047-1.43.226-4.988-1.127-7.087a4.327,4.327,0,0,0-1.537-1.283c-9.812-5.725-21.811-5.741-33.17-5.6-1.581.02-3.783.805-3.337,2.323-2.147-1.541-4.958.623-6.688,2.62l-3.542,4.088a31.5,31.5,0,0,0-4.328,5.855c-1.082,2.069-1.321,5.25.832,6.152-1.6-.671-3.543,8.811,3.837,7.251C654.021,147.918,658.224,142.215,662.887,140.555Z" transform="translate(-491.396 -120.5)" fill="#2f2e41"/>
      <path id="Path_15" data-name="Path 15" d="M742.065,247.387l16.918-2.115s16.918,32.779,7.4,38.066-33.837,9.517-33.837,7.4S742.065,247.387,742.065,247.387Z" transform="translate(-520.61 -161.785)" fill="#d0cde1"/>
    </g>
    <g id="circle-social" transform="translate(0 37.268)">
      <path id="Path_2" data-name="Path 2" d="M280.527,199.645c1.714-1.157,3.469-2.285,5.215-3.354l.8,1.313c-2.615,1.6-5.233,3.326-7.748,5.108l-.889-1.256Q279.2,200.539,280.527,199.645Zm-10.088,7.494.973,1.192c-2.392,1.951-4.74,4.006-6.983,6.108l-1.052-1.123c2.268-2.125,4.644-4.2,7.062-6.177Zm23.467-15.471c2.767-1.444,5.613-2.808,8.462-4.055l.616,1.41c-2.815,1.232-5.63,2.581-8.365,4.01Zm-37.151,28.3,1.127,1.049c-2.1,2.255-4.143,4.613-6.08,7.008l-1.2-.967c1.96-2.423,4.029-4.808,6.15-7.089Zm54.334-35.814c2.932-1.049,5.94-2.009,8.94-2.854l.417,1.48c-2.967.836-5.94,1.786-8.839,2.823Zm-66.127,50.4,1.261.882c-1.766,2.523-3.466,5.137-5.052,7.77l-1.318-.795C241.457,239.744,243.175,237.1,244.962,234.548Zm84.2-55.487c3.058-.636,6.172-1.174,9.259-1.6l.209,1.525c-3.051.418-6.131.949-9.154,1.578ZM235.295,250.6l1.369.7c-1.4,2.742-2.73,5.566-3.941,8.393l-1.415-.606C232.534,256.229,233.875,253.373,235.295,250.6Zm112.466-74.09c3.114-.211,6.271-.316,9.385-.313l0,1.538c-3.078,0-6.2.1-9.28.309ZM227.912,267.832l1.452.508c-1.017,2.908-1.946,5.887-2.762,8.856l-1.484-.407C225.944,273.786,226.883,270.772,227.912,267.832Zm138.617-91.305c3.107.216,6.248.542,9.337.969l-.211,1.524c-3.054-.422-6.16-.744-9.232-.958ZM222.941,285.917l1.508.306c-.612,3.02-1.128,6.1-1.534,9.153l-1.525-.2C221.8,292.084,222.322,288.97,222.941,285.917ZM385.113,179.1c3.051.637,6.119,1.387,9.116,2.229l-.416,1.481c-2.964-.833-6-1.574-9.014-2.2ZM220.475,304.517l1.535.1c-.2,3.072-.288,6.194-.274,9.278l-1.538.007C220.183,310.781,220.276,307.623,220.475,304.517ZM403.17,184.171c2.935,1.045,5.871,2.2,8.724,3.447l-.614,1.411c-2.821-1.228-5.724-2.375-8.627-3.409ZM220.563,323.285l1.534-.113c.226,3.076.561,6.182,1,9.234l-1.523.218C221.131,329.537,220.791,326.4,220.563,323.285Zm199.8-131.633c2.763,1.435,5.511,2.984,8.167,4.6l-.8,1.313c-2.626-1.6-5.343-3.134-8.075-4.553ZM223.221,341.873l1.5-.323c.647,3.017,1.407,6.049,2.26,9.014l-1.479.425C224.644,347.99,223.875,344.922,223.221,341.873ZM436.355,201.409c2.543,1.8,5.054,3.716,7.465,5.688l-.974,1.191c-2.383-1.95-4.866-3.841-7.38-5.623Zm-207.942,158.5,1.446-.527c1.054,2.9,2.223,5.79,3.473,8.6l-1.406.624C230.662,365.768,229.48,362.841,228.413,359.913Zm222.46-146.627c2.269,2.134,4.493,4.375,6.61,6.66l-1.129,1.046c-2.093-2.26-4.292-4.475-6.535-6.585ZM236.029,377.052l1.36-.719c1.439,2.718,2.993,5.426,4.617,8.047l-1.308.81C239.055,382.539,237.485,379.8,236.029,377.052Zm227.59-150.008c1.953,2.421,3.85,4.944,5.64,7.5l-1.26.883c-1.77-2.527-3.646-5.022-5.577-7.416ZM247.159,392.1c1.8,2.507,3.7,4.981,5.658,7.353l-1.186.979c-1.98-2.4-3.905-4.9-5.723-7.435Zm11.805,14.3c2.123,2.239,4.346,4.429,6.611,6.51l-1.041,1.132c-2.29-2.1-4.539-4.32-6.686-6.585Zm13.654,12.549c2.4,1.921,4.905,3.783,7.434,5.533l-.875,1.265c-2.558-1.77-5.088-3.653-7.519-5.6Zm15.235,10.541c2.649,1.574,5.384,3.075,8.129,4.461l-.693,1.374c-2.776-1.4-5.542-2.92-8.221-4.512Zm16.546,8.356c2.842,1.2,5.758,2.312,8.665,3.311l-.5,1.454c-2.941-1.009-5.89-2.136-8.764-3.347Zm17.539,6.022c2.974.8,6.015,1.507,9.038,2.1l-.3,1.509c-3.058-.6-6.133-1.318-9.141-2.126Zm18.2,3.584c3.061.388,6.171.676,9.243.854l-.089,1.536c-3.107-.181-6.253-.471-9.347-.864Zm18.523,1.077c3.087-.033,6.207-.172,9.276-.415l.122,1.534c-3.1.245-6.259.386-9.381.419Zm18.5-1.466c3.052-.454,6.124-1.02,9.134-1.683l.331,1.5c-3.043.67-6.152,1.243-9.238,1.7Zm18.131-3.993c2.956-.869,5.918-1.852,8.806-2.923l.535,1.442c-2.922,1.083-5.918,2.077-8.907,2.956Zm17.39-6.446c2.805-1.266,5.6-2.647,8.321-4.1l.727,1.356c-2.747,1.474-5.579,2.87-8.415,4.151Z" transform="translate(-220.196 -176.197)" fill="#e6e6e6"/>
    </g>
    <g id="flower" transform="translate(394.265 204.077)">
      <path id="Path_16" data-name="Path 16" d="M875.137,655.583c-.176-.288-4.339-7.239-5.782-21.671-1.324-13.241-.473-35.56,11.1-66.692,21.928-58.979-5.053-106.566-5.329-107.04l1.331-.772c.07.12,7.032,12.253,11.145,31.573a137.741,137.741,0,0,1-5.7,76.776c-21.89,58.878-5.616,86.75-5.449,87.025Z" transform="translate(-829.103 -436.717)" fill="#3f3d56"/>
      <circle id="Ellipse_3" data-name="Ellipse 3" cx="10" cy="10" r="10" transform="translate(27.46)" fill="#6c63ff"/>
      <circle id="Ellipse_4" data-name="Ellipse 4" cx="10" cy="10" r="10" transform="translate(58.998 36.924)" fill="#6c63ff"/>
      <circle id="Ellipse_5" data-name="Ellipse 5" cx="10" cy="10" r="10" transform="translate(37.459 61.54)" fill="#6c63ff"/>
      <circle id="Ellipse_6" data-name="Ellipse 6" cx="10" cy="10" r="10" transform="translate(63.614 82.309)" fill="#6c63ff"/>
      <circle id="Ellipse_7" data-name="Ellipse 7" cx="10" cy="10" r="10" transform="translate(29.767 114.617)" fill="#6c63ff"/>
      <path id="Path_17" data-name="Path 17" d="M886.465,731.842s-10-24.616,20-43.078Z" transform="translate(-834.389 -512.607)" fill="#3f3d56"/>
      <path id="Path_18" data-name="Path 18" d="M849.205,739.643s-4.551-26.177-39.777-25.953Z" transform="translate(-809.429 -520.854)" fill="#3f3d56"/>
    </g>
    <g id="icon-social-3" transform="translate(128.309 218.801)">
      <path id="Path_19" data-name="Path 19" d="M436.712,447.5a24.757,24.757,0,1,0,24.757,24.757A24.757,24.757,0,0,0,436.712,447.5Zm12.235,18.478c.013.267.02.541.02.815,0,8.353-6.351,17.983-17.976,17.983a17.645,17.645,0,0,1-9.663-2.856,12.787,12.787,0,0,0,1.506.091,12.657,12.657,0,0,0,7.844-2.706,6.323,6.323,0,0,1-5.9-4.388,5.958,5.958,0,0,0,1.187.117,6.356,6.356,0,0,0,1.661-.221,6.318,6.318,0,0,1-5.065-6.195v-.078a6.165,6.165,0,0,0,2.869.789,6.325,6.325,0,0,1-1.963-8.437,17.89,17.89,0,0,0,13.015,6.605,6.174,6.174,0,0,1-.163-1.441,6.311,6.311,0,0,1,10.922-4.316,12.543,12.543,0,0,0,4.01-1.532,6.335,6.335,0,0,1-2.778,3.495,12.763,12.763,0,0,0,3.625-1A12.85,12.85,0,0,1,448.948,465.978Z" transform="translate(-411.955 -447.5)" fill="#3f3d56"/>
    </g>
    <g id="icon-social-2" transform="translate(49.253 150.551)">
      <circle id="Ellipse_8" data-name="Ellipse 8" cx="4.173" cy="4.173" r="4.173" transform="translate(20.852 20.365)" fill="#3f3d56"/>
      <path id="Path_21" data-name="Path 21" d="M318.561,345.5a24.757,24.757,0,1,0,24.757,24.757A24.757,24.757,0,0,0,318.561,345.5Zm12.787,29.754a7.324,7.324,0,0,1-7.3,7.3H313.613a7.324,7.324,0,0,1-7.3-7.3V364.822a7.324,7.324,0,0,1,7.3-7.3h10.432a7.324,7.324,0,0,1,7.3,7.3Z" transform="translate(-293.804 -345.5)" fill="#3f3d56"/>
      <path id="Path_20" data-name="Path 20" d="M331.262,366.581H320.829a5.231,5.231,0,0,0-5.216,5.216V382.23a5.232,5.232,0,0,0,5.216,5.216h10.432a5.232,5.232,0,0,0,5.216-5.216V371.8a5.232,5.232,0,0,0-5.216-5.216Zm-5.216,16.692a6.259,6.259,0,1,1,6.26-6.259,6.26,6.26,0,0,1-6.26,6.259Zm6.781-11.476a1.561,1.561,0,1,1,1.108-.457,1.565,1.565,0,0,1-1.108.457Z" transform="translate(-301.02 -352.475)" fill="#3f3d56"/>
    </g>
    <g id="icon-social-1" transform="translate(129.547 81.632)">
      <path id="Path_22" data-name="Path 22" d="M428.561,240.5a24.757,24.757,0,1,0,24.757,24.757A24.757,24.757,0,0,0,428.561,240.5Zm.148,39.215a14.678,14.678,0,0,1-4.14-.6,12.139,12.139,0,0,0,1.467-3.13c.183-.652,1.03-4.016,1.03-4.016a4.191,4.191,0,0,0,3.567,1.819c4.695,0,7.883-4.277,7.883-10.009,0-4.329-3.671-8.366-9.246-8.366-6.938,0-10.439,4.975-10.439,9.122,0,2.517.952,4.747,2.993,5.581a.5.5,0,0,0,.73-.365c.072-.261.228-.906.3-1.174a.714.714,0,0,0-.209-.815,4.211,4.211,0,0,1-.965-2.863,6.921,6.921,0,0,1,7.192-7c3.919,0,6.077,2.393,6.077,5.594,0,4.212-1.865,7.766-4.629,7.766a2.258,2.258,0,0,1-2.308-2.81c.437-1.852,1.291-3.847,1.291-5.184a1.954,1.954,0,0,0-1.969-2.191c-1.565,0-2.817,1.617-2.817,3.782a5.575,5.575,0,0,0,.469,2.308s-1.6,6.775-1.878,7.961a12.938,12.938,0,0,0-.254,3.351,14.592,14.592,0,1,1,5.855,1.232Z" transform="translate(-403.804 -240.5)" fill="#3f3d56"/>
    </g>
  </g>
</svg>
