<svg xmlns="http://www.w3.org/2000/svg" xmlns:xlink="http://www.w3.org/1999/xlink" width="898.475" height="1145.682" viewBox="0 0 898.475 1145.682">
  <defs>
    <linearGradient id="linear-gradient" x1="0.5" x2="0.5" y2="1" gradientUnits="objectBoundingBox">
      <stop offset="0" stop-color="#49a09d"/>
      <stop offset="1" stop-color="#5f2c82"/>
    </linearGradient>
    <linearGradient id="linear-gradient-2" x1="0.5" x2="0.5" y2="1" gradientUnits="objectBoundingBox">
      <stop offset="0" stop-color="#5f2c82"/>
      <stop offset="1" stop-color="#49a09d"/>
    </linearGradient>
  </defs>
  <g id="undraw_by_the_road_4rfk" transform="translate(0.045 0)">
    <circle id="Ellipse_89" data-name="Ellipse 89" cx="47.5" cy="47.5" r="47.5" transform="translate(21.309 100.696)" fill="#ff6584"/>
    <path id="Path_469" data-name="Path 469" d="M398.254,480.6,443.5,413.309l-45.156,74.528.094,7.572q-4.955.038-9.814-.165l2.244-97.329-.061-.751.083-.145.215-9.2-49.552-71.944,49.494,65.061.176,1.944,1.7-73.536-42.8-74.589,42.922,61.671-.448-152.347v-.507l.015.5,2.841,120.07,39.007-48.772-38.879,59.115.851,65.776,35.894-64.195-35.762,73.865.474,36.575,52.2-89.423L397.194,399.266Z" transform="translate(-156 -101.396)" fill="#3f3d56"/>
    <path id="Path_470" data-name="Path 470" d="M555.455,529.42,600.7,462.131l-45.156,74.528.094,7.572q-4.955.038-9.814-.165l2.244-97.329-.061-.751.083-.145.215-9.2L498.756,364.7l49.494,65.06.176,1.944,1.7-73.536-42.8-74.59,42.922,61.671L549.795,192.9V192.4l.015.5,2.841,120.07,39.007-48.773L552.78,323.308l.851,65.776,35.894-64.195-35.763,73.866.474,36.575,52.2-89.423L554.4,448.089Z" transform="translate(-156 -101.396)" fill="#e6e6e6"/>
    <path id="Path_471" data-name="Path 471" d="M260.7,438.42l45.248-67.289L260.8,445.659l.094,7.572q-4.955.038-9.814-.165l2.244-97.329-.061-.751.083-.145.215-9.2L204,273.7,253.5,338.76l.176,1.944,1.7-73.536-42.8-74.59,42.922,61.671L255.043,101.9V101.4l.015.5,2.841,120.07,39.006-48.773-38.879,59.116.851,65.776,35.894-64.195L259.01,307.755l.474,36.575,52.2-89.423L259.643,357.089Z" transform="translate(-156 -101.396)" fill="#3f3d56"/>
    <path id="Path_472" data-name="Path 472" d="M707.042,599.213l45.248-67.289-45.156,74.528.094,7.572q-4.955.038-9.814-.165l2.244-97.329-.061-.751.083-.145.215-9.2-49.552-71.944,49.494,65.061.176,1.944,1.7-73.536-42.8-74.59,42.922,61.671L701.382,262.7v-.507l.015.5,2.842,120.07,39.007-48.772L704.367,393.1l.851,65.776,35.894-64.195L705.35,468.548l.474,36.575,52.2-89.423L705.982,517.882Z" transform="translate(-156 -101.396)" fill="#e6e6e6"/>
    <path id="Path_473" data-name="Path 473" d="M1044,798.6c1.2,353.619-888,448.474-888,448.474V418.7c.908,0,1.825,0,2.732.009C268.6,418.841,1042.8,444.985,1044,798.6Z" transform="translate(-156 -101.396)" fill="url(#linear-gradient)"/>
    <path id="Path_474" data-name="Path 474" d="M840.593,798.6C842.274,1060.765,156,1075.226,156,1075.226v-569.5C259.145,505.723,838.912,536.443,840.593,798.6Z" transform="translate(-156 -101.396)" fill="#3f3d56"/>
    <path id="Path_475" data-name="Path 475" d="M746.609,749.516l-1.478,1.151a183.175,183.175,0,0,1,20.941,33.546l1.694-.8a185.61,185.61,0,0,0-21.157-33.892Zm-56.115-53.523c-.571-.43-1.142-.852-1.712-1.273l-1.114,1.506c.571.421,1.142.842,1.7,1.263A335.319,335.319,0,0,1,718.285,721.5l1.282-1.366a338.728,338.728,0,0,0-29.073-24.142ZM620.642,653.3l-.852,1.675c12.164,6.185,23.87,12.66,34.781,19.248l.964-1.6C644.587,666.022,632.844,659.519,620.642,653.3Zm-73.07-31.9-.655,1.75c12.651,4.744,25.068,9.76,36.886,14.9l.739-1.712c-11.846-5.155-24.282-10.18-36.971-14.933Zm-47.647-16.337c-9.17-2.873-18.64-5.68-28.156-8.347l-.505,1.806c9.5,2.657,18.948,5.465,28.1,8.319,3.359,1.057,6.681,2.115,9.993,3.191l.571-1.778Q504.959,606.646,499.925,605.069Zm-78.451-21.194c-3.724-.87-7.439-1.712-11.023-2.5-5.352-1.188-10.78-2.349-16.151-3.462l-.374,1.834c5.352,1.1,10.78,2.274,16.122,3.462,3.584.777,7.28,1.619,10.995,2.48,3.921.908,7.86,1.843,11.715,2.77l.44-1.815c-3.856-.936-7.8-1.872-11.725-2.77Zm-105.69-19.716-.271,1.853c13.194,1.909,26.425,4.024,39.31,6.279l.328-1.843C342.237,568.192,329,566.077,315.784,564.159Zm-79.19-9.226-.168,1.862c13.24,1.188,26.565,2.555,39.609,4.07L276.25,559c-13.063-1.516-26.406-2.882-39.656-4.07Zm-79.574-5.025-.066,1.871c13.25.5,26.631,1.17,39.768,2l.112-1.871C183.688,551.087,170.3,550.413,157.02,549.908Z" transform="translate(-156 -101.396)" fill="#fff"/>
    <path id="Path_476" data-name="Path 476" d="M635,798.6c-3.6,164.148-479,178.523-479,178.523V593.681C333.694,593.681,638.593,634.456,635,798.6Z" transform="translate(-156 -101.396)" fill="url(#linear-gradient-2)"/>
    <path id="Path_477" data-name="Path 477" d="M1044,798.6c9.866,72.317-76.3,225.414-286.988,296.9-82.777,28.084-175.484,68.876-268.417,91.578C315.754,1229.3,156,1243.92,156,1243.92V798.6L937.009,602.877C974.535,630.784,1019.113,655.3,1044,798.6Z" transform="translate(-156 -101.396)" opacity="0.2"/>
    <path id="Path_497" data-name="Path 497" d="M828.55,141.562l.025,0-3.7-21.649L804.4,126.414l3.064,19.363a5.262,5.262,0,1,0,2.114,2.6l.019,0-3.288-20.78,17.221-5.471,2.927,17.114a5.251,5.251,0,1,0,2.1,2.327Z" transform="translate(-28.633 89.148)" fill="#6c63ff"/>
    <path id="Path_498" data-name="Path 498" d="M1013.648,157.2l.025,0-3.7-21.649-20.477,6.505,3.064,19.363a5.262,5.262,0,1,0,2.114,2.6l.019,0-3.288-20.78,17.221-5.471,2.927,17.114a5.251,5.251,0,1,0,2.1,2.327Z" transform="translate(-115.699 81.79)" fill="#6c63ff"/>
    <path id="Path_499" data-name="Path 499" d="M900.237,190.956l.015,0-2.638-16.673-1.3.206,2.287,14.454a4.08,4.08,0,1,0,1.639,2.015Z" transform="translate(-72.356 63.572)" fill="#6c63ff"/>
    <path id="Path_500" data-name="Path 500" d="M942.278,163.055a4.072,4.072,0,1,0-1.9,3.435l-2.287,14.454,1.3.206,2.638-16.673-.015,0A4.044,4.044,0,0,0,942.278,163.055Z" transform="translate(-92.016 70.773)" fill="#6c63ff"/>
    <path id="Path_501" data-name="Path 501" d="M473.448,548.6l7.719,11.579,11.579-9.006-7.719-9.65Z" transform="translate(207.301 -53.718)" fill="#ffb8b8"/>
    <path id="Path_502" data-name="Path 502" d="M639.3,661.724s-11.056.514-7.939,6.358S636.9,706.9,645.8,704.99s16.959-12.017,16.86-18.975-1.212-9.975-1.212-9.975-2.385-4.605-.8-5.877,2.187-9.31-1.594-11.754-14.712-5.68-14.712-5.68S643.236,662.738,639.3,661.724Z" transform="translate(50.664 -161.479)" fill="#2f2e41"/>
    <path id="Path_503" data-name="Path 503" d="M499.1,605.9l-2.573,14.152,13.509,1.286V610.4Z" transform="translate(196.446 -83.999)" fill="#ffb8b8"/>
    <path id="Path_504" data-name="Path 504" d="M568.393,345.212s-7.076,23.8-9.006,37.954c0,0-38.6,52.106-31.521,74.621s27.661,67.544,27.661,67.544,34.737-14.152,41.813-21.872L571.61,466.792s3.86-4.5-1.93-7.076-.643-5.79-.643-5.79,10.936-36.667,21.872-40.527l37.954-7.719S626.289,351,617.283,341.352C617.283,341.352,572.253,342,568.393,345.212Z" transform="translate(99.49 -15.014)" fill="#2f2e41"/>
    <path id="Path_505" data-name="Path 505" d="M633.425,721.8s-6.433-9.006-9.649-3.216-29.591,25.731-23.158,32.164,19.3,7.719,25.088,3.86,7.719-6.433,7.719-6.433,2.573-4.5,4.5-3.86,9.006-3.216,9.006-7.719-3.216-15.439-3.216-15.439S634.712,725.661,633.425,721.8Z" transform="translate(65.336 -191.543)" fill="#2f2e41"/>
    <path id="Path_506" data-name="Path 506" d="M645.238,453.46l9.006,77.837s-5.146,21.872-6.433,38.6,0,16.082,0,16.082,28.948,11.579,34.094,3.86,2.573-139.592,2.573-139.592l-15.439-14.152Z" transform="translate(43.874 -59.577)" fill="#2f2e41"/>
    <path id="Path_507" data-name="Path 507" d="M613.25,123.812c6.678-15.757,23.678-18.733,23.678-18.733s16.368-4.367,30.038,16.429c12.741,19.384,29.172,37.545,8.335,45.282l-5.5-11.56-.66,13.3a84.835,84.835,0,0,1-9.173,1.392c-23.112,2.348-44.9,6.252-45.3-2.1C614.123,156.722,606.824,138.974,613.25,123.812Z" transform="translate(60.158 96.303)" fill="#2f2e41"/>
    <circle id="Ellipse_92" data-name="Ellipse 92" cx="18.655" cy="18.655" r="18.655" transform="translate(682.036 213.764)" fill="#ffb8b8"/>
    <path id="Path_508" data-name="Path 508" d="M654.71,185.347s-.322,18.977-2.251,23.48,34.416-3.538,34.416-3.538-12.866-9.006-14.8-21.228Z" transform="translate(40.512 58.972)" fill="#ffb8b8"/>
    <path id="Path_509" data-name="Path 509" d="M627.456,213.953l-3.513-2.584-24.791,1.3L594,269.275s-14.8,17.369,3.216,17.369,34.737-8.363,47.6-2.573,23.8-61.112,23.8-61.112l-19.232-11.59S640.965,221.672,627.456,213.953Z" transform="translate(70.662 46.127)" fill="#575a89"/>
    <path id="Path_510" data-name="Path 510" d="M620.637,302.485,656.66,310.2v8.363l-36.024,1.287S616.777,305.058,620.637,302.485Z" transform="translate(56.253 3.268)" fill="#ffb8b8"/>
    <path id="Path_511" data-name="Path 511" d="M601.738,217.035l-7.076-3.216s-8.363,1.93-9.006,9.006S572.79,275.574,582.44,277.5s22.515,1.93,22.515,1.93-8.363-11.579,1.93-18.012l-7.719-3.86s-7.719-17.369-2.573-26.375S601.738,217.035,601.738,217.035Z" transform="translate(75.151 44.975)" fill="#575a89"/>
    <path id="Path_512" data-name="Path 512" d="M466,17.357l17.036-8.924,23.527,3.651,4.867,21.5-12.117-.466-3.385-7.9v7.768l-5.591-.215L487.088,20.2,485.06,33.583l-19.876-.406Z" transform="translate(211.188 197.034)" fill="#2f2e41"/>
    <ellipse id="Ellipse_93" data-name="Ellipse 93" cx="3.431" cy="6.004" rx="3.431" ry="6.004" transform="translate(716.023 224.596)" fill="#ffb8b8"/>
    <circle id="Ellipse_94" data-name="Ellipse 94" cx="2.341" cy="2.341" r="2.341" transform="translate(717.441 230.167)" fill="#fff"/>
    <ellipse id="Ellipse_95" data-name="Ellipse 95" cx="0.381" cy="1.142" rx="0.381" ry="1.142" transform="translate(720.407 231.014)" fill="#2f2e41"/>
    <path id="Path_513" data-name="Path 513" d="M703.869,172.234h0a.6.6,0,0,1-.6-.6l-.6-4.792h1.8v4.792A.6.6,0,0,1,703.869,172.234Z" transform="translate(16.859 67.071)" fill="#fff"/>
    <path id="Path_514" data-name="Path 514" d="M455.328,148.149l-6.074,26.323h14.174l-11.136-2.531Z" transform="translate(218.681 131.314)" opacity="0.1"/>
    <path id="Path_515" data-name="Path 515" d="M730.136,321.046l-.135-.121,3.325-3.689a2.875,2.875,0,0,0-.211-4.06l-7.816-7.044a2.874,2.874,0,0,0-4.06.211L703,326.582a2.874,2.874,0,0,0,.211,4.06l7.816,7.044a2.874,2.874,0,0,0,4.06-.211l12.549-13.924.135.121Z" transform="translate(17.053 1.901)" fill="#3f3d56"/>
    <circle id="Ellipse_96" data-name="Ellipse 96" cx="1.852" cy="1.852" r="1.852" transform="translate(739.204 315.611)" fill="#6c63ff"/>
    <path id="Path_516" data-name="Path 516" d="M711.848,322.487s21.929,5.307,16.876,12.875-25-6.264-25-6.264Z" transform="translate(16.363 -6.14)" fill="#ffb8b8"/>
    <path id="Path_517" data-name="Path 517" d="M703.971,233.252h5.79s6.433,7.076,5.146,13.509-5.146,36.667-5.146,36.667-19.3,18.012-28.948,8.363-2.573-18.655-2.573-18.655,12.866,10.293,19.942-3.216Z" transform="translate(29.527 35.834)" fill="#575a89"/>
    <path id="Path_518" data-name="Path 518" d="M699.657,252.029l4.431-43.775s9.293-27.635.221-28.312-9.709,26.187-9.709,26.187l-15.8,47.9S687.471,262.522,699.657,252.029Z" transform="translate(28.087 60.915)" fill="#ffb8b8"/>
    <path id="Path_521" data-name="Path 521" d="M746.609,584.6l-1.478-1.151a183.176,183.176,0,0,0,20.941-33.546l1.694.8A185.61,185.61,0,0,1,746.609,584.6Zm-56.115,53.523c-.571.43-1.142.852-1.712,1.273l-1.114-1.506c.571-.421,1.142-.842,1.7-1.263a335.319,335.319,0,0,0,28.914-24.011l1.282,1.366a338.728,338.728,0,0,1-29.073,24.142Zm-69.852,42.688-.852-1.675c12.164-6.185,23.87-12.66,34.781-19.248l.964,1.6C644.587,668.1,632.844,674.6,620.642,680.816Zm-73.07,31.9-.655-1.75c12.651-4.744,25.068-9.76,36.886-14.9l.739,1.712c-11.846,5.155-24.282,10.18-36.971,14.933Zm-47.647,16.337c-9.17,2.873-18.64,5.68-28.156,8.347l-.505-1.806c9.5-2.657,18.948-5.465,28.1-8.319,3.359-1.057,6.681-2.115,9.993-3.191l.571,1.778Q504.959,727.475,499.925,729.052Zm-78.451,21.194c-3.724.87-7.439,1.712-11.023,2.5-5.352,1.188-10.779,2.349-16.151,3.462l-.374-1.834c5.352-1.1,10.779-2.274,16.122-3.462,3.584-.777,7.28-1.619,10.995-2.48,3.921-.908,7.86-1.843,11.715-2.77l.44,1.815c-3.856.936-7.8,1.872-11.725,2.77Zm-105.69,19.716-.271-1.853c13.194-1.909,26.425-4.024,39.31-6.279l.328,1.843C342.237,765.929,329,768.044,315.784,769.962Zm-79.19,9.226-.168-1.862c13.24-1.188,26.565-2.555,39.609-4.07l.215,1.862c-13.063,1.516-26.406,2.882-39.656,4.07Zm-79.574,5.025-.065-1.871c13.25-.5,26.631-1.17,39.768-2l.112,1.871C183.688,783.034,170.3,783.708,157.02,784.213Z" transform="translate(-157 147.789)" fill="#fff"/>
  </g>
</svg>
