<svg xmlns="http://www.w3.org/2000/svg" width="218.172" height="198.446" viewBox="0 0 218.172 198.446">
  <g id="undraw_not_found_60pq" transform="translate(-86.418 -13)">
    <g id="big-tree-1">
      <path id="Path_187" data-name="Path 187" d="M271.653,154.306c0,41.046-24.4,55.378-54.5,55.378s-54.5-14.332-54.5-55.378,54.5-93.264,54.5-93.264S271.653,113.26,271.653,154.306Z" transform="translate(-76.231 -48.042)" fill="#f2f2f2"/>
      <path id="Path_188" data-name="Path 188" d="M257.47,142.364l.558-34.352,23.23-42.5-23.142,37.11.251-15.446,16.01-30.747-15.944,26.66h0l.451-27.781L276.029,30.83,258.956,50.94,259.238,0l-1.772,67.435.146-2.782-17.43-26.68,17.151,32.02-1.624,31.026-.048-.823L235.565,72.119,255.6,103.105l-.2,3.88-.036.058.017.319-4.12,78.716h5.505l.66-40.658,19.984-30.91Z" transform="translate(-118.536 13)" fill="#3f3d56"/>
    </g>
    <g id="big-tree-2">
      <path id="Path_189" data-name="Path 189" d="M921.262,261.493c0,33.6-19.974,45.33-44.613,45.33s-44.613-11.731-44.613-45.33,44.612-76.341,44.612-76.341S921.262,227.895,921.262,261.493Z" transform="translate(-616.672 -151.418)" fill="#f2f2f2"/>
      <path id="Path_190" data-name="Path 190" d="M902.445,240.641l.457-28.119,19.015-34.787-18.944,30.376.206-12.643L916.285,170.3l-13.052,21.822h0l.369-22.74,14.033-20.037L903.66,165.807l.231-41.7-1.451,55.2.119-2.277-14.268-21.839,14.039,26.21L901,206.8l-.04-.674-16.448-22.982,16.4,25.364-.166,3.176-.03.048.014.261-3.373,64.433h4.506l.541-33.281,16.357-25.3Z" transform="translate(-644.094 -90.376)" fill="#3f3d56"/>
    </g>
    <ellipse id="Ellipse_63" data-name="Ellipse 63" cx="25.819" cy="1.305" rx="25.819" ry="1.305" transform="translate(216.757 196.246)" fill="#3f3d56"/>
    <ellipse id="Ellipse_64" data-name="Ellipse 64" cx="25.819" cy="1.305" rx="25.819" ry="1.305" transform="translate(123.329 208.835)" fill="#3f3d56"/>
    <g id="small-tree-2">
      <path id="Path_192" data-name="Path 192" d="M150.791,580.258c0,14.97-8.9,20.2-19.878,20.2q-.382,0-.762-.009c-.509-.011-1.012-.035-1.51-.069-9.908-.7-17.606-6.2-17.606-20.12,0-14.408,18.412-32.589,19.8-33.935l0,0,.08-.078S150.791,565.288,150.791,580.258Z" transform="translate(61.353 -398.361)" fill="#6c63ff"/>
      <path id="Path_193" data-name="Path 193" d="M160.1,598.165l7.27-10.159-7.288,11.274-.019,1.166c-.509-.011-1.012-.035-1.51-.069l.784-14.977-.006-.116.013-.022.074-1.415-7.306-11.3,7.329,10.241.017.3.592-11.316-6.255-11.678,6.332,9.692.616-23.461,0-.08v.077l-.1,18.5,6.227-7.334-6.253,8.928-.165,10.132,5.814-9.724-5.839,11.215-.092,5.633,8.441-13.534-8.473,15.5Z" transform="translate(31.445 -398.361)" fill="#3f3d56"/>
    </g>
    <g id="small-tree-1">
      <path id="Path_195" data-name="Path 195" d="M513.529,577.65c0,13.742-8.169,18.54-18.247,18.54q-.35,0-.7-.008c-.467-.01-.929-.032-1.386-.063-9.095-.644-16.161-5.689-16.161-18.469,0-13.226,16.9-29.915,18.171-31.15l0,0,.073-.071S513.529,563.908,513.529,577.65Z" transform="translate(-346.164 -387.494)" fill="#6c63ff"/>
      <path id="Path_196" data-name="Path 196" d="M522.072,594.087l6.674-9.325-6.69,10.349-.018,1.071c-.467-.01-.929-.032-1.386-.063l.719-13.749-.005-.107.012-.02.068-1.3-6.707-10.375,6.728,9.4.016.276.544-10.388-5.742-10.72,5.812,8.9.566-21.536,0-.073v.071l-.094,16.983,5.716-6.733-5.74,8.2-.151,9.3,5.337-8.926-5.36,10.295-.085,5.171,7.749-12.423-7.778,14.228Z" transform="translate(-373.619 -387.493)" fill="#3f3d56"/>
    </g>
    <g id="small-tree-3">
      <path id="Path_197" data-name="Path 197" d="M768.791,591.258c0,14.97-8.9,20.2-19.878,20.2q-.382,0-.762-.008c-.509-.011-1.012-.035-1.51-.069-9.908-.7-17.606-6.2-17.606-20.12,0-14.408,18.412-32.589,19.8-33.935l0,0,.08-.078S768.791,576.288,768.791,591.258Z" transform="translate(-506.668 -415.371)" fill="#6c63ff"/>
      <path id="Path_198" data-name="Path 198" d="M778.1,609.166l7.27-10.159-7.288,11.274-.019,1.166c-.509-.011-1.012-.035-1.51-.069l.784-14.977-.006-.116.013-.022.074-1.415-7.307-11.3,7.33,10.241.017.3.592-11.316-6.255-11.678,6.331,9.692.617-23.461,0-.08v.078l-.1,18.5,6.227-7.334-6.253,8.928-.165,10.132,5.814-9.724-5.839,11.215-.092,5.633,8.441-13.534-8.473,15.5Z" transform="translate(-536.576 -415.371)" fill="#3f3d56"/>
    </g>
  </g>
</svg>
