<svg xmlns="http://www.w3.org/2000/svg" width="1920" height="1953.731" viewBox="0 0 1920 1953.731">
  <g id="dark-night" transform="translate(0)">
    <path id="Path_582" data-name="Path 582" d="M1053.03,198.5c-527.694,0-955.932,425.744-960,952.478V2152.231h1920V1150.978C2008.954,624.244,1580.723,198.5,1053.03,198.5Z" transform="translate(-93.025 -198.5)" fill="#2f2e41"/>
    <circle id="Ellipse_107" data-name="Ellipse 107" cx="9.468" cy="9.468" r="9.468" transform="translate(900.95 90.029)" fill="#f2f2f2"/>
    <circle id="Ellipse_108" data-name="Ellipse 108" cx="3.787" cy="3.787" r="3.787" transform="translate(609.336 408.153)" fill="#f2f2f2"/>
    <circle id="Ellipse_109" data-name="Ellipse 109" cx="3.787" cy="3.787" r="3.787" transform="translate(1167.946 586.151)" fill="#f2f2f2"/>
    <circle id="Ellipse_110" data-name="Ellipse 110" cx="3.787" cy="3.787" r="3.787" transform="translate(181.383 538.811)" fill="#f2f2f2"/>
    <circle id="Ellipse_111" data-name="Ellipse 111" cx="3.787" cy="3.787" r="3.787" transform="translate(1658.387 404.366)" fill="#f2f2f2"/>
    <circle id="Ellipse_112" data-name="Ellipse 112" cx="3.787" cy="3.787" r="3.787" transform="translate(442.7 444.131)" fill="#f2f2f2"/>
    <circle id="Ellipse_113" data-name="Ellipse 113" cx="3.787" cy="3.787" r="3.787" transform="translate(1063.799 368.387)" fill="#f2f2f2"/>
    <circle id="Ellipse_114" data-name="Ellipse 114" cx="3.787" cy="3.787" r="3.787" transform="translate(1188.776 95.71)" fill="#f2f2f2"/>
    <rect id="Rectangle_63" data-name="Rectangle 63" width="3.787" height="1.894" transform="translate(401.041 546.385)" fill="#f2f2f2"/>
    <rect id="Rectangle_64" data-name="Rectangle 64" width="3.787" height="1.894" transform="translate(512.763 256.665)" fill="#f2f2f2"/>
    <rect id="Rectangle_65" data-name="Rectangle 65" width="3.787" height="1.894" transform="translate(785.44 472.535)" fill="#f2f2f2"/>
    <rect id="Rectangle_66" data-name="Rectangle 66" width="3.787" height="1.894" transform="translate(1508.793 555.853)" fill="#f2f2f2"/>
    <rect id="Rectangle_67" data-name="Rectangle 67" width="3.787" height="1.894" transform="translate(1283.456 266.133)" fill="#f2f2f2"/>
    <rect id="Rectangle_68" data-name="Rectangle 68" width="6.664" height="263.215" transform="translate(426.228 688.662)" fill="#3f3d56"/>
    <path id="Path_583" data-name="Path 583" d="M415.553,616.4c.424,92.04-64.331,166.953-64.331,166.953S285.779,709.036,285.355,617s64.331-166.952,64.331-166.952S415.129,524.356,415.553,616.4Z" transform="translate(78.838 26.278)" fill="#3f3d56"/>
    <rect id="Rectangle_69" data-name="Rectangle 69" width="8.639" height="341.246" transform="translate(342.002 610.631)" fill="#3f3d56"/>
    <path id="Path_584" data-name="Path 584" d="M399.958,603.713c.55,119.326-83.4,216.447-83.4,216.447s-84.843-96.343-85.394-215.669,83.4-216.447,83.4-216.447S399.409,484.388,399.958,603.713Z" transform="translate(30.412 -29.125)" fill="#3f3d56"/>
    <rect id="Rectangle_70" data-name="Rectangle 70" width="6.664" height="263.215" transform="translate(1348.408 688.662)" fill="#6c63ff"/>
    <path id="Path_585" data-name="Path 585" d="M902.553,658.4c.424,92.04-64.331,166.953-64.331,166.953S772.779,751.036,772.355,659s64.331-166.952,64.331-166.952S902.129,566.356,902.553,658.4Z" transform="translate(514.018 63.809)" fill="#3f3d56"/>
    <rect id="Rectangle_71" data-name="Rectangle 71" width="6.664" height="263.215" transform="translate(267.166 688.662)" fill="#3f3d56"/>
    <path id="Path_586" data-name="Path 586" d="M331.553,616.4c.424,92.04-64.331,166.953-64.331,166.953S201.779,709.036,201.355,617s64.331-166.952,64.331-166.952S331.129,524.356,331.553,616.4Z" transform="translate(3.776 26.278)" fill="#3f3d56"/>
    <rect id="Rectangle_72" data-name="Rectangle 72" width="6.664" height="263.215" transform="translate(854.18 688.662)" fill="#3f3d56"/>
    <path id="Path_587" data-name="Path 587" d="M641.553,616.4c.424,92.04-64.331,166.953-64.331,166.953S511.779,709.036,511.355,617s64.331-166.952,64.331-166.952S641.129,524.356,641.553,616.4Z" transform="translate(280.79 26.278)" fill="#3f3d56"/>
    <rect id="Rectangle_73" data-name="Rectangle 73" width="8.639" height="341.246" transform="translate(769.955 610.631)" fill="#3f3d56"/>
    <path id="Path_588" data-name="Path 588" d="M625.958,603.713c.55,119.326-83.4,216.447-83.4,216.447s-84.843-96.343-85.393-215.669,83.4-216.447,83.4-216.447S625.409,484.388,625.958,603.713Z" transform="translate(232.364 -29.125)" fill="#3f3d56"/>
    <rect id="Rectangle_74" data-name="Rectangle 74" width="6.664" height="263.215" transform="translate(695.118 688.662)" fill="#3f3d56"/>
    <path id="Path_589" data-name="Path 589" d="M557.553,616.4c.424,92.04-64.331,166.953-64.331,166.953S427.779,709.036,427.355,617s64.331-166.952,64.331-166.952S557.129,524.356,557.553,616.4Z" transform="translate(205.728 26.278)" fill="#3f3d56"/>
    <path id="Path_590" data-name="Path 590" d="M884.14,675.229,772.79,572.844c-.3,4.6-.457,9.251-.436,13.949.424,92.04,65.867,166.353,65.867,166.353a308.311,308.311,0,0,0,45.919-77.918Z" transform="translate(514.017 136.012)" fill="#6c63ff"/>
    <path id="Path_591" data-name="Path 591" d="M394.213,702.108c3.815,14.1,16.883,22.837,16.883,22.837s6.882-14.131,3.067-28.234-16.883-22.837-16.883-22.837S390.4,688,394.213,702.108Z" transform="translate(175.085 226.291)" fill="#3f3d56"/>
    <path id="Path_592" data-name="Path 592" d="M408.977,692.4c10.469,10.191,11.747,25.857,11.747,25.857s-15.695-.857-26.163-11.048-11.747-25.857-11.747-25.857S398.507,682.207,408.977,692.4Z" transform="translate(165.928 232.971)" fill="#3f3d56"/>
    <path id="Path_593" data-name="Path 593" d="M678.213,702.108c3.815,14.1,16.883,22.837,16.883,22.837s6.882-14.131,3.067-28.234-16.883-22.837-16.883-22.837S674.4,688,678.213,702.108Z" transform="translate(428.865 226.291)" fill="#6c63ff"/>
    <path id="Path_594" data-name="Path 594" d="M692.976,692.4c10.469,10.191,11.747,25.857,11.747,25.857s-15.694-.857-26.163-11.048-11.747-25.857-11.747-25.857S682.507,682.207,692.976,692.4Z" transform="translate(419.708 232.971)" fill="#6c63ff"/>
    <path id="Path_595" data-name="Path 595" d="M170.213,702.108c3.815,14.1,16.883,22.837,16.883,22.837s6.882-14.131,3.067-28.234-16.883-22.837-16.883-22.837S166.4,688,170.213,702.108Z" transform="translate(-25.08 226.291)" fill="#3f3d56"/>
    <path id="Path_596" data-name="Path 596" d="M184.977,692.4c10.469,10.191,11.747,25.857,11.747,25.857s-15.695-.857-26.163-11.048-11.747-25.857-11.747-25.857S174.507,682.207,184.977,692.4Z" transform="translate(-34.237 232.971)" fill="#3f3d56"/>
    <path id="Path_597" data-name="Path 597" d="M480.358,447.054,663.109,722.879a215.163,215.163,0,0,0,6.14-51.079c-.207-44.882-15.875-85.543-31.875-115.434l-8.454,2.1,7.952-3.033a293.636,293.636,0,0,0-33.488-49.987s-4.663,5.4-11.474,15.063c-24.01-77.88-72.072-132.466-72.072-132.466a374.011,374.011,0,0,0-39.479,59.01Z" transform="translate(253.093 -29.125)" fill="#6c63ff"/>
    <path id="Path_598" data-name="Path 598" d="M1059.354,700.432a5.449,5.449,0,1,0,0-10.9h-44.8a12.184,12.184,0,0,1-5.449,16.346,5.449,5.449,0,0,0,5.449,5.449h44.8a5.449,5.449,0,0,0,0-10.9Z" transform="translate(725.576 240.285)" fill="#f2f2f2" opacity="0.1"/>
    <path id="Path_599" data-name="Path 599" d="M1016.648,696.687c.766,29.716-17.209,22.141-39,22.141s-39.765,3.787-39.912-22.141c-.072-12.768,17.795-15.545,39.586-15.545S1016.318,683.924,1016.648,696.687Z" transform="translate(661.803 232.786)" fill="#3f3d56"/>
    <path id="Path_600" data-name="Path 600" d="M1051.763,740.664a3.336,3.336,0,0,0-1.129-.364,56.513,56.513,0,0,1-5.869-1.255,12.366,12.366,0,0,1-5.195-2.89,12.522,12.522,0,0,0-1.83-1.752,2.2,2.2,0,0,0-2.385-.172,1.575,1.575,0,0,0-.211.2l-.812-.536q-2.163-1.424-4.347-2.815l-.059-.038a2.006,2.006,0,0,0,0-.692,3.343,3.343,0,0,0-1.45-1.8c1.879-.018,3.767-.19,5.634-.387a6.759,6.759,0,0,0,4.783-1.87,1.3,1.3,0,0,0,.333-.773c0-.588-.6-.973-1.149-1.2a11.554,11.554,0,0,0-2.247-.663,12.261,12.261,0,0,1-1.594-.333,8.032,8.032,0,0,1-1.342-.634l-2.777-1.528a4.236,4.236,0,0,1-1.074-.745c-.472-.5-.68-1.2-1.161-1.694-.443-.452-2.233-1.046-2.489-.121-.1.366.285.77.332,1.179a18.749,18.749,0,0,0-1.922-1.056c.036-.082.084-.156.115-.241a24.754,24.754,0,0,1-7.119-9.217c.275.006.55.024.826.021a2.112,2.112,0,0,0,1.334-.326,1.456,1.456,0,0,0,.473-1.183,4.011,4.011,0,0,0-.319-1.275,9.759,9.759,0,0,0-1.843-3.307,11.056,11.056,0,0,0-2.7-1.918l-.16-.09c-.067-.2-.129-.411-.211-.611a32.582,32.582,0,0,0-2.025-3.6,23.581,23.581,0,0,1-2.315-6.167,7.944,7.944,0,0,0-1.462-3.628c-1.445-1.593-3.923-1.552-6.06-1.312-1.219.137-2.432.321-3.645.509-.011-.03-.012-.064-.024-.094a2.478,2.478,0,0,1-.279-.919,3.812,3.812,0,0,1,.172-.773,1.9,1.9,0,0,0-.53-1.745c-.05-.048-.1-.1-.151-.156q.2-.472.367-.953a1.144,1.144,0,0,0,.267-.863,9.137,9.137,0,0,0,.346-2.384,26.1,26.1,0,0,1-.192-5.38,3.009,3.009,0,0,0-.473-1.243c-.044-.06-.118-.087-.169-.14a7.616,7.616,0,0,1,1.271-1.319,19.11,19.11,0,0,1,2.981-1.89c.251-.138.6-.237.843-.4a8.469,8.469,0,0,0,9.082-11.483,2.981,2.981,0,0,0,1.856-1.369,5.577,5.577,0,0,0,.728-2.359,2.47,2.47,0,0,0-.357-1.864,4.168,4.168,0,0,0-1.084-.759,4.153,4.153,0,0,1-1.351-1.368c-.239-.4-.411-.827-.626-1.236a4.583,4.583,0,0,0-3.96-2.624,17.114,17.114,0,0,0-2.356.469c-2.651.465-5.533-.938-7.992.156a7.431,7.431,0,0,0-1.672,1.115q-1.039.857-2,1.8a4.13,4.13,0,0,0-1.217,1.771c-.334,1.255.461,2.656-.045,3.852a5.827,5.827,0,0,1-.616.968c-.558.818.048,4.013-.013,5a1.854,1.854,0,0,0,.342,1.37,1.152,1.152,0,0,0,.249.19,110.888,110.888,0,0,0-12.08,5.134,25.888,25.888,0,0,0-11.209,10.47c-.666,1.3-1.172,2.671-1.774,4-.8,1.772-1.774,3.462-2.745,5.149-1.183,2.057-2.369,4.118-3.737,6.057a34.656,34.656,0,0,0-2.164,3.207,3.069,3.069,0,0,0-.014.486.872.872,0,0,1-.044.456.7.7,0,0,1-.518.3l-.032.083a29.584,29.584,0,0,0-.768,3.032c-.4,1.627-1.048,3.2-1.3,4.854a1.291,1.291,0,0,0,1.26,2.011c1.419.631,2.785,1.37,4.148,2.115-.02.1-.051.2-.064.3a5.59,5.59,0,0,0,2.963,5.176,15.247,15.247,0,0,0,6.046,1.643c.817.1,1.639.144,2.457.227A16.7,16.7,0,0,0,976.31,718a3.512,3.512,0,0,0,.886.139A2.693,2.693,0,0,0,979.221,717a139.842,139.842,0,0,0,21.121-.431,7.727,7.727,0,0,1,5.7.884c1.523,1.237,1.829,3.431,2.96,5.034a18.58,18.58,0,0,0,2.754,2.687,41.027,41.027,0,0,1,5.288,6.951,15.6,15.6,0,0,0,6.372,5.881,4.508,4.508,0,0,1,1.978-1.72c.211-.125.412-.272.619-.407a7.787,7.787,0,0,0,.967,1.26c.271.293.541.6.795.923-.008,0-.015,0-.023,0-.369.058-.492.519-.535.889q-.243,2.13-.487,4.259a1.585,1.585,0,0,0,.057.842,1.487,1.487,0,0,0,.766.636,11.54,11.54,0,0,0,4.2,1.108c.734.05,1.471.029,2.2.094a26.642,26.642,0,0,1,3.559.711,33.468,33.468,0,0,0,9.709.76,6.176,6.176,0,0,0,1.969-.373,5.855,5.855,0,0,0,1.944-1.5,5.5,5.5,0,0,0,1.462-2.342A2.275,2.275,0,0,0,1051.763,740.664Z" transform="translate(677.665 200.553)" fill="#3f3d56"/>
    <path id="Path_601" data-name="Path 601" d="M979.624,645.448c.314-.055.624-.141.934-.221a6.827,6.827,0,0,0-2.964.286,8.27,8.27,0,0,0,2.03-.066Z" transform="translate(697.421 200.646)" fill="#ff6584"/>
    <path id="Path_602" data-name="Path 602" d="M988.367,647.7c.215.409.387.841.626,1.236a4.157,4.157,0,0,0,1.351,1.367,4.172,4.172,0,0,1,1.084.759,2.469,2.469,0,0,1,.356,1.864,5.58,5.58,0,0,1-.728,2.359,2.981,2.981,0,0,1-1.856,1.369,8.349,8.349,0,0,1-9.082,11.482c-.24.159-.591.257-.843.4a19.116,19.116,0,0,0-2.981,1.889,7.624,7.624,0,0,0-1.271,1.319c.05.053.124.081.169.14a3.015,3.015,0,0,1,.473,1.244,26.116,26.116,0,0,0,.191,5.38,9.131,9.131,0,0,1-.346,2.384,1.144,1.144,0,0,1-.266.863q-.168.48-.367.953c.05.053.1.107.15.156a1.9,1.9,0,0,1,.53,1.745,3.808,3.808,0,0,0-.172.773,2.485,2.485,0,0,0,.279.919c.012.03.013.064.024.094,1.212-.188,2.426-.372,3.645-.509a17.921,17.921,0,0,1,1.809-.119,1.248,1.248,0,0,1-.077-.385,3.8,3.8,0,0,1,.172-.773,1.9,1.9,0,0,0-.53-1.745c-.05-.048-.1-.1-.151-.156q.2-.472.367-.953a1.145,1.145,0,0,0,.267-.863,9.138,9.138,0,0,0,.346-2.384,26.1,26.1,0,0,1-.191-5.38,3.015,3.015,0,0,0-.474-1.244c-.044-.06-.118-.087-.169-.14a7.619,7.619,0,0,1,1.271-1.319,19.122,19.122,0,0,1,2.981-1.889c.251-.139.6-.237.843-.4a8.469,8.469,0,0,0,9.082-11.482,2.982,2.982,0,0,0,1.856-1.369,5.578,5.578,0,0,0,.728-2.359,2.471,2.471,0,0,0-.356-1.864,4.17,4.17,0,0,0-1.084-.759,4.156,4.156,0,0,1-1.351-1.368c-.24-.4-.411-.827-.626-1.236a4.582,4.582,0,0,0-3.96-2.624,17.087,17.087,0,0,0-2.356.469,7.165,7.165,0,0,1-1.312.087A5.286,5.286,0,0,1,988.367,647.7Z" transform="translate(694.993 200.553)" fill="#ff6584"/>
    <path id="Path_603" data-name="Path 603" d="M1030.325,721.465a3.335,3.335,0,0,0-1.129-.364,56.519,56.519,0,0,1-5.869-1.255,12.366,12.366,0,0,1-5.195-2.89,12.516,12.516,0,0,0-1.83-1.752,2.2,2.2,0,0,0-2.385-.172,1.571,1.571,0,0,0-.211.2l-.812-.536q-2.163-1.424-4.347-2.815l-.059-.038a2.006,2.006,0,0,0,0-.692,3.344,3.344,0,0,0-1.449-1.8c1.879-.018,3.767-.19,5.634-.387a6.758,6.758,0,0,0,4.783-1.87,1.3,1.3,0,0,0,.333-.773c0-.588-.6-.973-1.149-1.2a11.55,11.55,0,0,0-2.247-.663,12.258,12.258,0,0,1-1.594-.333,8.037,8.037,0,0,1-1.342-.634l-2.776-1.528a4.235,4.235,0,0,1-1.074-.745c-.472-.5-.68-1.2-1.161-1.694-.443-.452-2.233-1.047-2.489-.121-.1.366.285.77.332,1.179a18.749,18.749,0,0,0-1.922-1.056c.036-.082.084-.156.115-.241a24.752,24.752,0,0,1-7.119-9.217c.275.006.55.024.825.021a2.112,2.112,0,0,0,1.334-.326,1.456,1.456,0,0,0,.473-1.183,4.011,4.011,0,0,0-.319-1.275,9.759,9.759,0,0,0-1.843-3.307,11.059,11.059,0,0,0-2.7-1.918l-.16-.09c-.067-.2-.129-.411-.211-.611a32.538,32.538,0,0,0-2.025-3.6,23.577,23.577,0,0,1-2.315-6.167,7.945,7.945,0,0,0-1.462-3.628c-1.445-1.593-3.923-1.552-6.06-1.312-.478.054-.952.134-1.428.2a4.039,4.039,0,0,1,1.807,1.112,7.945,7.945,0,0,1,1.462,3.628,23.577,23.577,0,0,0,2.315,6.167,32.531,32.531,0,0,1,2.025,3.6c.082.2.143.406.21.611l.16.09a11.058,11.058,0,0,1,2.7,1.918A9.752,9.752,0,0,1,992,687.314a4.015,4.015,0,0,1,.319,1.275,1.456,1.456,0,0,1-.473,1.183,2.111,2.111,0,0,1-1.334.326c-.275,0-.55-.015-.825-.021a24.758,24.758,0,0,0,7.119,9.217c-.031.084-.079.159-.115.24a18.736,18.736,0,0,1,1.922,1.056c-.047-.409-.433-.813-.332-1.179.256-.926,2.046-.331,2.489.121.48.49.689,1.2,1.161,1.694a4.235,4.235,0,0,0,1.074.745l2.777,1.528a8.036,8.036,0,0,0,1.342.634,12.288,12.288,0,0,0,1.594.333,11.547,11.547,0,0,1,2.247.663c.544.223,1.151.608,1.149,1.2a1.3,1.3,0,0,1-.333.773,6.76,6.76,0,0,1-4.784,1.87c-1.867.2-3.756.369-5.635.387a3.345,3.345,0,0,1,1.45,1.8,2,2,0,0,1,0,.692l.059.038q2.184,1.392,4.347,2.815l.812.536a1.558,1.558,0,0,1,.211-.2,2.2,2.2,0,0,1,2.385.172,12.507,12.507,0,0,1,1.829,1.752,12.363,12.363,0,0,0,5.195,2.89,56.463,56.463,0,0,0,5.869,1.255,3.342,3.342,0,0,1,1.13.363,2.275,2.275,0,0,1,.838,2.471,5.5,5.5,0,0,1-1.462,2.342,5.855,5.855,0,0,1-1.944,1.5,5.063,5.063,0,0,1-1.441.317,33.411,33.411,0,0,0,5.153.056,6.175,6.175,0,0,0,1.969-.373,5.855,5.855,0,0,0,1.943-1.5,5.5,5.5,0,0,0,1.462-2.342,2.275,2.275,0,0,0-.838-2.471Z" transform="translate(699.103 219.751)" fill="#ff6584"/>
    <path id="Path_604" data-name="Path 604" d="M989.694,693.071c.094.086.186.175.281.258-.07-.1-.147-.2-.21-.3Z" transform="translate(708.233 243.404)" fill="#ff6584"/>
    <path id="Path_605" data-name="Path 605" d="M1053.217,712.166c0,20.062-8.945,14.53-19.979,14.53s-19.979,5.532-19.979-14.53,19.979-58.122,19.979-58.122S1053.217,692.1,1053.217,712.166Z" transform="translate(729.289 208.572)" fill="#ff6584"/>
    <path id="Path_606" data-name="Path 606" d="M1037.181,701.259c0,9.119-4.066,6.6-9.081,6.6s-9.081,2.514-9.081-6.6,9.081-26.419,9.081-26.419S1037.181,692.14,1037.181,701.259Z" transform="translate(734.437 227.155)" opacity="0.1"/>
    <path id="Path_607" data-name="Path 607" d="M1037.04,660.462s4.151-4.316,4.068-8.549" transform="translate(750.541 206.667)" fill="#ff6584"/>
    <path id="Path_608" data-name="Path 608" d="M1017.149,641.084s-1.733-5.732-5.465-7.731" transform="translate(727.883 190.082)" fill="#ff6584"/>
    <path id="Path_609" data-name="Path 609" d="M995.154,600.084s-1.733-5.732-5.465-7.731" transform="translate(708.228 153.445)" fill="#ff6584"/>
    <path id="Path_610" data-name="Path 610" d="M1021.149,655.084s-1.733-5.732-5.465-7.731" transform="translate(731.457 202.592)" fill="#ff6584"/>
    <path id="Path_611" data-name="Path 611" d="M1018.149,606.084s-1.733-5.732-5.465-7.731" transform="translate(728.776 158.806)" fill="#ff6584"/>
    <path id="Path_612" data-name="Path 612" d="M1012.149,624.084s-1.733-5.732-5.465-7.731" transform="translate(723.415 174.891)" fill="#ff6584"/>
    <path id="Path_613" data-name="Path 613" d="M1035.04,691.462s4.151-4.316,4.068-8.549" transform="translate(748.754 234.369)" fill="#ff6584"/>
    <path id="Path_614" data-name="Path 614" d="M1039.04,674.462s4.151-4.316,4.068-8.549" transform="translate(752.328 219.177)" fill="#ff6584"/>
    <rect id="Rectangle_75" data-name="Rectangle 75" width="47.905" height="1.895" transform="matrix(0.949, -0.316, 0.316, 0.949, 1694.062, 903.368)" fill="#ff6584"/>
    <path id="Path_615" data-name="Path 615" d="M1014.765,670.394c1.706,6.666-1.158,5.074-3.77,5.615s-2.1,2.945-5.689-3.657c-2.483-4.566,1.158-5.074,3.77-5.615S1013.61,665.842,1014.765,670.394Z" transform="translate(721.443 219.638)" fill="#ff6584"/>
    <path id="Path_616" data-name="Path 616" d="M809.6,453.276h0l0,0-41.316-37.989-.371.093-16.544-15.041-.8-.233.862-.328L575.478,238h0L405.555,81.762,318.97,127.689l-7.082,1.568,103.763,156.6,392.7,592.695h463.779Z" transform="translate(278.702 73.062)" fill="#f2f2f2" opacity="0.1"/>
    <circle id="Ellipse_115" data-name="Ellipse 115" cx="51.127" cy="51.127" r="51.127" transform="translate(582.826 124.114)" fill="#f2f2f2"/>
    <g id="Ellipse_124" data-name="Ellipse 124" transform="translate(197 1146)" fill="#fff" stroke="#707070" stroke-width="1">
      <circle cx="6" cy="6" r="6" stroke="none"/>
      <circle cx="6" cy="6" r="5.5" fill="none"/>
    </g>
    <g id="Ellipse_125" data-name="Ellipse 125" transform="translate(934 1029)" fill="#fff" stroke="#707070" stroke-width="1">
      <circle cx="15.5" cy="15.5" r="15.5" stroke="none"/>
      <circle cx="15.5" cy="15.5" r="15" fill="none"/>
    </g>
    <g id="Ellipse_126" data-name="Ellipse 126" transform="translate(1702 1238)" fill="#fff" stroke="#707070" stroke-width="1">
      <circle cx="6" cy="6" r="6" stroke="none"/>
      <circle cx="6" cy="6" r="5.5" fill="none"/>
    </g>
    <g id="Ellipse_127" data-name="Ellipse 127" transform="translate(1702 1445)" fill="#fff" stroke="#707070" stroke-width="1">
      <circle cx="10.5" cy="10.5" r="10.5" stroke="none"/>
      <circle cx="10.5" cy="10.5" r="10" fill="none"/>
    </g>
    <g id="Ellipse_128" data-name="Ellipse 128" transform="translate(269 1571)" fill="#fff" stroke="#707070" stroke-width="1">
      <circle cx="9.5" cy="9.5" r="9.5" stroke="none"/>
      <circle cx="9.5" cy="9.5" r="9" fill="none"/>
    </g>
    <g id="Ellipse_129" data-name="Ellipse 129" transform="translate(209 1777)" fill="#fff" stroke="#707070" stroke-width="1">
      <circle cx="0.5" cy="0.5" r="0.5" stroke="none"/>
      <circle cx="0.5" cy="0.5" fill="none"/>
    </g>
    <g id="Ellipse_130" data-name="Ellipse 130" transform="translate(1653 1796)" fill="#fff" stroke="#707070" stroke-width="1">
      <circle cx="4.5" cy="4.5" r="4.5" stroke="none"/>
      <circle cx="4.5" cy="4.5" r="4" fill="none"/>
    </g>
    <g id="Ellipse_131" data-name="Ellipse 131" transform="translate(1493 1544)" fill="#fff" stroke="#707070" stroke-width="1">
      <circle cx="2" cy="2" r="2" stroke="none"/>
      <circle cx="2" cy="2" r="1.5" fill="none"/>
    </g>
  </g>
</svg>
