<svg xmlns="http://www.w3.org/2000/svg" width="352.078" height="381.351" viewBox="0 0 352.078 381.351">
  <g id="phone" transform="translate(-85.13 0.002)">
    <g id="Group_10" data-name="Group 10" transform="translate(85.13 105.01)" opacity="0.6">
      <path id="Path_526" data-name="Path 526" d="M202.369,338.284l1.507-68.529a4.055,4.055,0,0,1,3.668-3.944,517.393,517.393,0,0,1,97.516,0,4.055,4.055,0,0,1,3.688,4.02v68.519a4.05,4.05,0,0,1-3.854,4.045c-33.594,1.578-66.515,1.653-98.667,0a4.05,4.05,0,0,1-3.859-4.11Z" transform="translate(-202.369 -263.507)" fill="#36334a"/>
      <path id="Path_527" data-name="Path 527" d="M202.369,338.284l1.507-68.529a4.055,4.055,0,0,1,3.668-3.944,517.393,517.393,0,0,1,97.516,0,4.055,4.055,0,0,1,3.688,4.02v68.519a4.05,4.05,0,0,1-3.854,4.045c-33.594,1.578-66.515,1.653-98.667,0a4.05,4.05,0,0,1-3.859-4.11Z" transform="translate(-202.369 -263.507)" fill="#36334a"/>
      <path id="Path_528" data-name="Path 528" d="M202.369,338.284l1.507-68.529a4.055,4.055,0,0,1,3.668-3.944,517.393,517.393,0,0,1,97.516,0,4.055,4.055,0,0,1,3.688,4.02v68.519a4.05,4.05,0,0,1-3.854,4.045c-33.594,1.578-66.515,1.653-98.667,0a4.05,4.05,0,0,1-3.859-4.11Z" transform="translate(-202.369 -263.507)" fill="#6c63ff" opacity="0.2"/>
      <rect id="Rectangle_33" data-name="Rectangle 33" width="37.181" height="8.542" rx="2.25" transform="translate(11.12 14.814)" fill="#6c63ff"/>
      <rect id="Rectangle_34" data-name="Rectangle 34" width="84.914" height="4.02" rx="2.01" transform="translate(11.371 29.636)" fill="#6c63ff" opacity="0.3"/>
      <rect id="Rectangle_35" data-name="Rectangle 35" width="84.914" height="4.02" rx="2.01" transform="translate(11.371 40.187)" fill="#6c63ff" opacity="0.3"/>
      <rect id="Rectangle_36" data-name="Rectangle 36" width="56.275" height="4.02" rx="2.01" transform="translate(11.371 50.739)" fill="#6c63ff" opacity="0.3"/>
    </g>
    <g id="Group_11" data-name="Group 11" transform="translate(330.829 -0.003)" opacity="0.6">
      <path id="Path_529" data-name="Path 529" d="M691.37,129.284l1.507-68.529a4.055,4.055,0,0,1,3.668-3.944,517.4,517.4,0,0,1,97.516,0,4.055,4.055,0,0,1,3.688,4.02v68.519a4.05,4.05,0,0,1-3.854,4.02c-33.594,1.578-66.515,1.653-98.666,0A4.05,4.05,0,0,1,691.37,129.284Z" transform="translate(-691.37 -54.507)" fill="#36334a"/>
      <path id="Path_530" data-name="Path 530" d="M691.37,129.284l1.507-68.529a4.055,4.055,0,0,1,3.668-3.944,517.4,517.4,0,0,1,97.516,0,4.055,4.055,0,0,1,3.688,4.02v68.519a4.05,4.05,0,0,1-3.854,4.02c-33.594,1.578-66.515,1.653-98.666,0A4.05,4.05,0,0,1,691.37,129.284Z" transform="translate(-691.37 -54.507)" fill="#36334a"/>
      <path id="Path_531" data-name="Path 531" d="M691.37,129.284l1.507-68.529a4.055,4.055,0,0,1,3.668-3.944,517.4,517.4,0,0,1,97.516,0,4.055,4.055,0,0,1,3.688,4.02v68.519a4.05,4.05,0,0,1-3.854,4.02c-33.594,1.578-66.515,1.653-98.666,0A4.05,4.05,0,0,1,691.37,129.284Z" transform="translate(-691.37 -54.507)" fill="#6c63ff" opacity="0.2"/>
      <rect id="Rectangle_37" data-name="Rectangle 37" width="37.181" height="8.542" rx="2.25" transform="translate(11.119 14.814)" fill="#6c63ff"/>
      <rect id="Rectangle_38" data-name="Rectangle 38" width="84.914" height="4.02" rx="2.01" transform="translate(11.371 29.636)" fill="#6c63ff" opacity="0.3"/>
      <rect id="Rectangle_39" data-name="Rectangle 39" width="84.914" height="4.02" rx="2.01" transform="translate(11.371 40.187)" fill="#6c63ff" opacity="0.3"/>
      <rect id="Rectangle_40" data-name="Rectangle 40" width="56.275" height="4.02" rx="2.01" transform="translate(11.371 50.739)" fill="#6c63ff" opacity="0.3"/>
    </g>
    <ellipse id="Ellipse_97" data-name="Ellipse 97" cx="105.515" cy="21.103" rx="105.515" ry="21.103" transform="translate(163.327 339.143)" opacity="0.1"/>
    <rect id="Rectangle_41" data-name="Rectangle 41" width="5.18" height="42.718" rx="2.29" transform="translate(355.053 96.469)" fill="#3f3d56"/>
    <rect id="Rectangle_42" data-name="Rectangle 42" width="2.909" height="14.064" rx="1.455" transform="translate(182.802 63.006)" fill="#3f3d56"/>
    <rect id="Rectangle_43" data-name="Rectangle 43" width="3.276" height="24.479" rx="1.638" transform="translate(182.697 88.752)" fill="#3f3d56"/>
    <rect id="Rectangle_44" data-name="Rectangle 44" width="3.12" height="24.69" rx="1.56" transform="translate(182.747 121.793)" fill="#3f3d56"/>
    <rect id="Rectangle_45" data-name="Rectangle 45" width="173.396" height="352.404" rx="35.69" transform="translate(184.451 16.529)" fill="#3f3d56"/>
    <rect id="Rectangle_46" data-name="Rectangle 46" width="24.213" height="4.919" rx="2.459" transform="translate(254.422 27.051)" fill="#36334a"/>
    <circle id="Ellipse_98" data-name="Ellipse 98" cx="2.789" cy="2.789" r="2.789" transform="translate(282.298 26.724)" fill="#36334a"/>
    <path id="Path_535" data-name="Path 535" d="M573.331,119.447v306.5a13.772,13.772,0,0,1-13.772,13.767H435.122a13.772,13.772,0,0,1-13.772-13.767v-306.5a13.772,13.772,0,0,1,13.772-13.772h18.621v2.392a11.345,11.345,0,0,0,11.34,11.335h63.309a11.34,11.34,0,0,0,11.34-11.34V105.67h19.852A13.772,13.772,0,0,1,573.331,119.447Z" transform="translate(-226.192 -79.966)" fill="#36334a"/>
    <rect id="Rectangle_47" data-name="Rectangle 47" width="15.576" height="2.01" transform="translate(199.504 55.002)" fill="#3f3d56"/>
    <rect id="Rectangle_48" data-name="Rectangle 48" width="15.576" height="2.01" transform="translate(199.504 58.519)" fill="#3f3d56"/>
    <rect id="Rectangle_49" data-name="Rectangle 49" width="15.576" height="2.01" transform="translate(199.504 62.036)" fill="#3f3d56"/>
    <rect id="Rectangle_50" data-name="Rectangle 50" width="15.576" height="2.01" transform="translate(199.504 55.002)" fill="#3f3d56"/>
    <rect id="Rectangle_51" data-name="Rectangle 51" width="15.576" height="2.01" transform="translate(199.504 58.519)" fill="#3f3d56"/>
    <rect id="Rectangle_52" data-name="Rectangle 52" width="15.576" height="2.01" transform="translate(199.504 62.036)" fill="#3f3d56"/>
    <path id="Path_536" data-name="Path 536" d="M702.515,167.741h-.457l-.176-.146a3.824,3.824,0,0,0,.894-2.457,3.738,3.738,0,1,0-3.718,3.758A3.884,3.884,0,0,0,701.51,168l.171.141v.462l2.884,2.894.864-.869Zm-3.457,0a2.588,2.588,0,1,1,1.838-.761A2.6,2.6,0,0,1,699.058,167.741Z" transform="translate(-362.496 -107.704)" fill="#3f3d56"/>
    <path id="Path_553" data-name="Path 553" d="M228,484.8c2.6.281,5.12,1.09,7.723,1.251s5.462-.462,7.1-2.487a34.356,34.356,0,0,0,2.08-3.658,8.069,8.069,0,0,1,2.829-2.663A11.24,11.24,0,1,1,226.73,484.7C227.157,484.716,227.579,484.747,228,484.8Z" transform="translate(-129.359 -264.84)" opacity="0.1"/>
    <path id="Path_559" data-name="Path 559" d="M573.331,465.3V604.886a13.772,13.772,0,0,1-13.772,13.767H435.122a13.772,13.772,0,0,1-13.772-13.767V465.571a598.678,598.678,0,0,0,151.981-.271Z" transform="translate(-226.192 -258.899)" fill="#6c63ff" opacity="0.3"/>
    <circle id="Ellipse_99" data-name="Ellipse 99" cx="2.01" cy="2.01" r="2.01" transform="translate(253.769 175.847)" fill="#6c63ff" opacity="0.3"/>
    <circle id="Ellipse_100" data-name="Ellipse 100" cx="2.01" cy="2.01" r="2.01" transform="translate(262.813 175.847)" fill="#6c63ff"/>
    <circle id="Ellipse_101" data-name="Ellipse 101" cx="2.01" cy="2.01" r="2.01" transform="translate(271.857 175.847)" fill="#6c63ff" opacity="0.3"/>
    <circle id="Ellipse_102" data-name="Ellipse 102" cx="2.01" cy="2.01" r="2.01" transform="translate(280.901 175.847)" fill="#6c63ff" opacity="0.3"/>
    <path id="Path_560" data-name="Path 560" d="M467.369,284.283l1.507-68.529a4.055,4.055,0,0,1,3.668-3.944,517.391,517.391,0,0,1,97.516,0,4.055,4.055,0,0,1,3.688,4.02v68.519a4.05,4.05,0,0,1-3.854,4.045c-33.594,1.578-66.515,1.653-98.667,0A4.05,4.05,0,0,1,467.369,284.283Z" transform="translate(-249.089 -131.63)" fill="#6c63ff" opacity="0.3"/>
    <path id="Path_561" data-name="Path 561" d="M709.534,215.83v77.7q-5.411-.467-10.783-1a4.02,4.02,0,0,1-3.643-4.311l4.778-68.379a4.05,4.05,0,0,1,3.854-3.763Q706.634,215.941,709.534,215.83Z" transform="translate(-362.394 -134.776)" fill="#6c63ff" opacity="0.3"/>
    <path id="Path_562" data-name="Path 562" d="M421.44,215.83v77.7q5.411-.467,10.783-1a4.02,4.02,0,0,0,3.643-4.311l-4.778-68.379a4.05,4.05,0,0,0-3.854-3.763Q424.339,215.941,421.44,215.83Z" transform="translate(-226.237 -134.776)" fill="#6c63ff" opacity="0.3"/>
    <rect id="Rectangle_53" data-name="Rectangle 53" width="37.181" height="8.542" rx="2.25" transform="translate(229.4 92.691)" fill="#6c63ff"/>
    <rect id="Rectangle_54" data-name="Rectangle 54" width="84.914" height="4.02" rx="2.01" transform="translate(229.651 107.513)" fill="#6c63ff" opacity="0.3"/>
    <rect id="Rectangle_55" data-name="Rectangle 55" width="84.914" height="4.02" rx="2.01" transform="translate(229.651 118.065)" fill="#6c63ff" opacity="0.3"/>
    <rect id="Rectangle_56" data-name="Rectangle 56" width="56.275" height="4.02" rx="2.01" transform="translate(229.651 128.616)" fill="#6c63ff" opacity="0.3"/>
    <path id="Path_563" data-name="Path 563" d="M476.263,581.811a9.469,9.469,0,0,1-2.718.749,4.793,4.793,0,0,0,2.085-2.623,9.476,9.476,0,0,1-3.015,1.151,4.748,4.748,0,0,0-8.079,4.321,13.44,13.44,0,0,1-9.773-4.959,4.8,4.8,0,0,0-.638,2.387,4.743,4.743,0,0,0,2.116,3.95,4.653,4.653,0,0,1-2.156-.593v.06a4.743,4.743,0,0,0,3.8,4.653,4.875,4.875,0,0,1-1.246.166,4.394,4.394,0,0,1-.894-.091,4.748,4.748,0,0,0,4.432,3.3,9.481,9.481,0,0,1-5.889,2.01,9.383,9.383,0,0,1-1.131-.07,13.245,13.245,0,0,0,7.255,2.176,13.413,13.413,0,0,0,13.5-13.506v-.613a9.547,9.547,0,0,0,2.347-2.462Z" transform="translate(-242.019 -315.769)" fill="#fff"/>
    <path id="Path_564" data-name="Path 564" d="M576.077,579.61H559.35a1.04,1.04,0,0,0-1.04,1.035v16.747a1.04,1.04,0,0,0,1.04,1.04H567.7V590.97h-2.246v-2.743H567.7v-2.01a3.571,3.571,0,0,1,3.854-3.748c1.04,0,2.156.08,2.412.111v2.512h-1.728c-1.176,0-1.4.558-1.4,1.382v1.748h2.809l-.367,2.743h-2.442V598.4h5.231a1.04,1.04,0,0,0,1.035-1.04V580.645a1.035,1.035,0,0,0-1.025-1.035Z" transform="translate(-294.336 -315.774)" fill="#fff"/>
    <path id="Path_565" data-name="Path 565" d="M668.01,581.068a3.929,3.929,0,0,1,3.914,3.914v7.828a3.929,3.929,0,0,1-3.914,3.914h-7.838a3.929,3.929,0,0,1-3.914-3.914v-7.838a3.929,3.929,0,0,1,3.914-3.914h7.838m0-1.568h-7.838a5.5,5.5,0,0,0-5.482,5.482v7.838a5.5,5.5,0,0,0,5.482,5.482h7.838a5.5,5.5,0,0,0,5.482-5.482v-7.838a5.5,5.5,0,0,0-5.482-5.472Z" transform="translate(-342.29 -315.714)" fill="#fff"/>
    <path id="Path_566" data-name="Path 566" d="M673.833,588.091a1.171,1.171,0,1,1,.831-.341A1.176,1.176,0,0,1,673.833,588.091Zm-5.09.794a3.135,3.135,0,1,1-3.135,3.135,3.135,3.135,0,0,1,3.135-3.135m0-1.563a1.947,1.947,0,1,0,0-.01Z" transform="translate(-346.942 -318.824)" fill="#fff"/>
  </g>
</svg>
