<svg xmlns="http://www.w3.org/2000/svg" xmlns:xlink="http://www.w3.org/1999/xlink" width="442.784" height="358.171" viewBox="0 0 442.784 358.171">
  <defs>
    <radialGradient id="radial-gradient" cx="0.5" cy="0.5" r="0.5" gradientUnits="objectBoundingBox">
      <stop offset="0" stop-color="#5f2c82"/>
      <stop offset="1" stop-color="#49a09d"/>
    </radialGradient>
  </defs>
  <g id="selfie-women" transform="translate(0)">
    <path id="Path_263" data-name="Path 263" d="M219.119,355.439,489.313,219.178,378.779,0,98.794,128.113Z" transform="translate(-46.529)" fill="url(#radial-gradient)"/>
    <circle id="Ellipse_80" data-name="Ellipse 80" cx="16.531" cy="16.531" r="16.531" transform="translate(345.595 245.447)" fill="#131219" opacity="0.4"/>
    <circle id="Ellipse_81" data-name="Ellipse 81" cx="11.597" cy="11.597" r="11.597" transform="translate(319.935 258.277)" fill="#02020a" opacity="0.4"/>
    <rect id="Rectangle_32" data-name="Rectangle 32" width="51.845" height="51.845" transform="translate(47.119 239.69) rotate(30)" fill="#f2f2f2"/>
    <path id="Path_264" data-name="Path 264" d="M762.156,408.767a11.639,11.639,0,1,1,11.639-11.639A11.639,11.639,0,0,1,762.156,408.767Zm0-22.219a10.581,10.581,0,1,0,10.581,10.581A10.581,10.581,0,0,0,762.156,386.548Z" transform="translate(-449.496 -240.532)" fill="#3f3d56"/>
    <path id="Path_265" data-name="Path 265" d="M385.156,345.768a11.639,11.639,0,1,1,11.639-11.639,11.639,11.639,0,0,1-11.639,11.639Zm0-22.22a10.581,10.581,0,1,0,10.581,10.581,10.581,10.581,0,0,0-10.581-10.581Z" transform="translate(-271.943 -210.862)" fill="#3f3d56"/>
    <path id="Path_266" data-name="Path 266" d="M298.156,694.768a11.639,11.639,0,1,1,11.639-11.639A11.639,11.639,0,0,1,298.156,694.768Zm0-22.219a10.581,10.581,0,1,0,10.581,10.581A10.581,10.581,0,0,0,298.156,672.548Z" transform="translate(-230.969 -375.228)" fill="#3f3d56"/>
    <ellipse id="Ellipse_82" data-name="Ellipse 82" cx="17.987" cy="10.845" rx="17.987" ry="10.845" transform="translate(146.056 129.234) rotate(-48.312)" fill="#2f2e41"/>
    <circle id="Ellipse_83" data-name="Ellipse 83" cx="47.084" cy="47.084" r="47.084" transform="translate(153.156 109.26)" fill="#2f2e41"/>
    <path id="Path_267" data-name="Path 267" d="M253.594,367.768l-43.764,3.58a7.241,7.241,0,0,0-6.632,6.694l-1.634,22.551a7.241,7.241,0,0,0,7.223,7.765h19.725v1.058h7.936v-1.058h4.232v1.058h7.936v-1.058h4.23a7.242,7.242,0,0,0,7.232-6.871l1.34-26.131a7.241,7.241,0,0,0-7.823-7.588Z" transform="translate(-190.95 -232.174)" fill="#2f2e41"/>
    <path id="Path_268" data-name="Path 268" d="M287.524,476.61l-61.9-29.1-11.11,17.458s32.185,20.547,33.858,22.22c2.381,2.381,28.039,19.045,38.091,16.4S291.756,479.255,287.524,476.61Z" transform="translate(-197.059 -269.743)" fill="#9f616a"/>
    <path id="Path_269" data-name="Path 269" d="M243.936,642.085,236,660.072h82.149l-5.967-19.045Z" transform="translate(-111.148 -301.901)" fill="#2f2e41"/>
    <path id="Path_270" data-name="Path 270" d="M527.263,468.97s3.174,17.458,0,19.574,21.161,28.039,21.161,28.039l10.052-8.994,3.174-20.632s-9.523-13.226-5.29-24.865S527.263,468.97,527.263,468.97Z" transform="translate(-344.217 -274.8)" fill="#9f616a"/>
    <circle id="Ellipse_84" data-name="Ellipse 84" cx="33.858" cy="33.858" r="33.858" transform="translate(158.71 131.744)" fill="#9f616a"/>
    <path id="Path_271" data-name="Path 271" d="M497.937,524.082s-13.226-20.1-20.632-21.691-14.284-.529-18.516,0-18.516-4.761-26.981-1.058,0,47.084,0,47.084-9.523,55.549-5.29,69.833,1.058,16.929-1.058,18.516S473.6,652.637,473.6,652.637h47.613s0-15.342,4.761-19.045,4.232-82,4.232-82l15.871-30.684s-2.645-11.639-13.755-12.168-21.027-6.361-21.027-6.361l-7.541,21.7Z" transform="translate(-296.375 -294.467)" fill="#6c63ff"/>
    <path id="Path_272" data-name="Path 272" d="M389.53,501.305l-4.761-2.645s-8.994.529-10.581,0-21.69-6.877-29.626-3.174-13.226-1.058-13.226-1.058,25.923,22.219-5.819,29.1c0,0,.529,2.645,8.465,4.232s9.523,3.174,12.7,5.819,9.523,5.29,13.755,6.348,17.987,10.052,20.1,7.936,5.819-9.523,5.819-9.523Z" transform="translate(-249.336 -291.793)" fill="#6c63ff"/>
    <path id="Path_273" data-name="Path 273" d="M620.705,528.513l10.052,5.819s13.226,39.149,11.11,48.671-4.232,7.936-1.058,14.284,6.348,6.878,4.232,12.7-1.058,20.1-4.232,25.923-18.516,24.335-31.742-6.878S620.705,528.513,620.705,528.513Z" transform="translate(-381.053 -307.891)" fill="#6c63ff"/>
    <path id="Path_274" data-name="Path 274" d="M633.11,581.66s-7.407-14.813-8.994-15.871-8.994-37.562-8.994-37.562,11.639-19.045,1.058-27.51c0,0,19.574-27.51,13.226-26.981s-19.045,20.632-19.045,20.632-2.91-.793-1.852-5.026,5.026-19.31,1.852-19.839-9.523,22.219-9.523,22.219-12.961,23.542-8.994,31.742a102.219,102.219,0,0,0,7.935,13.226l8.994,65.6S626.232,623.454,633.11,581.66Z" transform="translate(-374.412 -280.096)" fill="#9f616a"/>
    <ellipse id="Ellipse_85" data-name="Ellipse 85" cx="5.819" cy="2.645" rx="5.819" ry="2.645" transform="translate(53.432 140.209)" fill="#6c63ff"/>
    <path id="Path_275" data-name="Path 275" d="M205.324,432.467h-7.407s-16.4-5.29-16.4-17.458,4.761-37.033,19.574-36.5,1.058,33.329,1.058,33.329l8.967,3.659.026,11.154Z" transform="translate(-181.517 -237.239)" fill="#9f616a"/>
    <ellipse id="Ellipse_86" data-name="Ellipse 86" cx="30.155" cy="15.342" rx="30.155" ry="15.342" transform="translate(156.859 127.776)" fill="#2f2e41"/>
    <ellipse id="Ellipse_87" data-name="Ellipse 87" cx="2.645" cy="5.819" rx="2.645" ry="5.819" transform="translate(225.104 156.344)" fill="#9f616a"/>
    <ellipse id="Ellipse_88" data-name="Ellipse 88" cx="10.845" cy="17.987" rx="10.845" ry="17.987" transform="translate(225.741 120.038) rotate(-25.902)" fill="#2f2e41"/>
  </g>
</svg>
