<svg xmlns="http://www.w3.org/2000/svg" width="339.849" height="329.327" viewBox="0 0 339.849 329.327">
  <g id="social-women" transform="translate(-444.647 -256.285)">
    <circle id="Ellipse_103" data-name="Ellipse 103" cx="17.173" cy="17.173" r="17.173" transform="translate(465.26 263.406)" fill="#3f3d56"/>
    <ellipse id="Ellipse_104" data-name="Ellipse 104" cx="48.181" cy="62.423" rx="48.181" ry="62.423" transform="translate(476.154 256.285)" fill="#3f3d56"/>
    <path id="Path_567" data-name="Path 567" d="M827.851,552.06c-24.137,0-44.131-22.99-47.636-52.99a80.914,80.914,0,0,0-.546,9.424c0,34.476,21.566,62.423,48.181,62.423s48.172-27.947,48.172-62.423a80.941,80.941,0,0,0-.546-9.424C871.973,529.07,851.979,552.06,827.851,552.06Z" transform="translate(-303.516 -189.785)" opacity="0.1"/>
    <path id="Path_568" data-name="Path 568" d="M931.85,705.531c-1.036,4.254-5.493,7.657-10.441,10.034-10.385,5-23.194,6.474-35.623,7a61.63,61.63,0,0,1-9.516-.176c-6.474-.777-12.54-3.551-16.313-7.5a2.238,2.238,0,0,1,.065-3.792c6.612-7.269,17.654-11.717,28.779-14.926,8.434-2.442,23.12-8.739,32.367-7.888C930.047,689.107,933.154,700.158,931.85,705.531Z" transform="translate(-309.478 -204.011)" fill="#3f3d56"/>
    <path id="Path_569" data-name="Path 569" d="M931.85,705.531c-1.036,4.254-5.493,7.657-10.441,10.034-10.385,5-23.194,6.474-35.623,7a61.63,61.63,0,0,1-9.516-.176c-6.474-.777-12.54-3.551-16.313-7.5a2.238,2.238,0,0,1,.065-3.792c6.612-7.269,17.654-11.717,28.779-14.926,8.434-2.442,23.12-8.739,32.367-7.888C930.047,689.107,933.154,700.158,931.85,705.531Z" transform="translate(-309.478 -204.011)" opacity="0.1"/>
    <path id="Path_570" data-name="Path 570" d="M794.766,666.93A26.292,26.292,0,0,0,793.176,687a35,35,0,0,0,11.754,16.646c13.437,10.774,31.933,12.254,49.162,12.106a379.7,379.7,0,0,0,45.1-3.117c4.994-.647,10.034-1.406,14.649-3.4,5.623-2.432,10.561-6.89,12.568-12.679s.583-12.882-4.171-16.748c-4.18-3.394-9.942-3.856-15.314-4.18l-30.777-1.831c3.043-3.07,7.084-4.809,10.783-7.047,4.9-2.969,8.166-7.944,11.736-12.429,5.327-6.7,11.625-12.558,17.885-18.394,1.008,5.734,4.624,10.45,8.906,14.408s9.2,7.148,13.641,10.922c10.755,9.128,18.5,21.52,29.815,29.954a58.334,58.334,0,0,0,21.363-10.663l-4.393-7.962a5.3,5.3,0,0,0-1.655-2.072c-1.249-.768-2.848-.37-4.3-.592-3.856-.573-5.549-5.031-7.056-8.638-4.161-9.877-12.133-17.571-18.93-25.829a130.332,130.332,0,0,1-13.308-19.605c-2.293-4.125-4.383-8.425-7.482-12.022s-7.454-6.353-12.17-6.363c-4.171,0-8.018,2.109-11.606,4.236a307.587,307.587,0,0,0-31.443,21.437c-5.244,4.078-10.469,8.379-16.646,10.885-2.589,1.045-5.327,1.766-7.815,3.052-4.356,2.238-7.666,6.029-11.227,9.405C829.584,658.524,812.2,666.3,794.766,666.93Z" transform="translate(-304.435 -197.186)" fill="#3f3d56"/>
    <path id="Path_571" data-name="Path 571" d="M861.252,575.661a31.951,31.951,0,0,1-2.312,10.7c-1.517,3.339-4.189,6.3-7.676,7.4a16.385,16.385,0,0,1-7.491.24,14.443,14.443,0,0,1-6.1-2.071c-2.876-1.988-4.319-5.549-4.837-8.98s-.3-6.991-.629-10.469a56.86,56.86,0,0,0-1.6-8.323c-.222-.925-.453-1.849-.684-2.719s-.434-1.85-.638-2.71-.361-1.711-.5-2.571c-.13-.721-.231-1.452-.314-2.182a24.861,24.861,0,0,0-1.073-6.409,20.246,20.246,0,0,0-2.247-3.8c-.379-.546-.749-1.082-1.091-1.656a7.8,7.8,0,0,1-1.295-4.985,4.623,4.623,0,0,1,.194-.8.8.8,0,0,1,.12-.3,2.423,2.423,0,0,0,1.637-1.526,4.512,4.512,0,0,0-.2-2.367,14.909,14.909,0,0,0-1.276-3.042c-.352-.638-1.545-1.785-1.554-2.515,0-1.47,2.848-2.654,4.013-3.228A22.371,22.371,0,0,1,837.133,521c2.534.167,5.29.925,6.686,3.07,1.258,1.914,1.091,4.4,1.628,6.621a1.9,1.9,0,0,0,.4.925,1.784,1.784,0,0,0,.98.453,6.149,6.149,0,0,0,1.85.074h0a4.49,4.49,0,0,0,.49-.074,6.575,6.575,0,0,0,2.71-1.165c.518-.139,1.036-.25,1.572-.342h.055c2.1,6.622,2.377,13.724,4.1,20.466.842,3.357,2.062,6.668,2.238,10.126v.462c0,1.11-.065,2.229,0,3.329a11.322,11.322,0,0,0,.166,1.48,22.33,22.33,0,0,0,.7,2.321h0c.083.24.157.49.222.731a4.528,4.528,0,0,1,.12.536h0a20.216,20.216,0,0,1,.2,5.651Z" transform="translate(-306.676 -191.431)" fill="#fbbebe"/>
    <circle id="Ellipse_105" data-name="Ellipse 105" cx="24.72" cy="24.72" r="24.72" transform="translate(500.448 291.473)" fill="#fbbebe"/>
    <path id="Path_572" data-name="Path 572" d="M990.706,643.068a40.5,40.5,0,0,0-6.973-18.773q.925,5.715,1.923,11.43a4.281,4.281,0,0,1-4.485-1.378,13.915,13.915,0,0,1-2.349-4.365,89.58,89.58,0,0,0-10.931-19.615c-15.721-1.313-31.285-7.833-45.13-15.444s-26.819-16.711-40.45-24.627a57.759,57.759,0,0,0-7.4-3.773c-4.272-1.711-9.072-2.6-13.123-4.624l-.814-.425a16.251,16.251,0,0,1-2.59-1.739,14.315,14.315,0,0,1-1.239-1.137c-2.146-2.229-3.468-5.114-4.735-7.925-2.183-4.809-2.95-10.616-5.123-15.425a14.949,14.949,0,0,1,3.329-2.349h0l.527-.268a15.13,15.13,0,0,1,2.673-.925c.518-.139,1.036-.25,1.572-.342h.055a15.443,15.443,0,0,1,7.315.573c3.44,1.165,6.344,3.5,9.248,5.687,4.624,3.477,9.35,6.742,13.511,10.718,2.386,2.293,4.568,4.8,7.139,6.88a54.81,54.81,0,0,0,6.732,4.467l41.689,24.83c4.707,2.774,9.414,5.6,14.02,8.573,6.982,4.5,13.724,9.387,20.456,14.269l11.893,8.628a12.951,12.951,0,0,1,3.375,3.117,11.2,11.2,0,0,1,1.5,4.569,41.851,41.851,0,0,1-1.618,19.393Z" transform="translate(-308.602 -192.199)" fill="#fbbebe"/>
    <path id="Path_573" data-name="Path 573" d="M864.715,595.034c-1.665,7.482-9.248,12.022-13.169,18.57-4.911,8.157-2.913,17.636-1.064,26.967l-10.117,8.712c-1.85,1.6-3.7,3.2-5.715,4.624a76.328,76.328,0,0,1-9.137,5.243l-8.952,4.624a42.541,42.541,0,0,1-8.758,3.7c-5.882,1.507-12.124.453-17.932-1.295a7.59,7.59,0,0,1-1.96-.8,3.25,3.25,0,0,1-.925-.841,5.225,5.225,0,0,1-.592-3.385c.592-9.784,2.987-19.365,5.364-28.872A85.56,85.56,0,0,1,804.1,602.017c3.2-5.327,6.362-10.755,10.6-15.342,1.8-1.979,3.819-3.866,4.892-6.316,1.489-3.394.925-7.278,1.211-10.977a22.973,22.973,0,0,1,2.173-8h0a22.423,22.423,0,0,1,2.321-3.838l1.221,2.839.8,1.85,1.026,2.386c.925,2.266,1.951,4.531,2.922,6.806a29.161,29.161,0,0,0,4.439,7.907c2.007,2.275,4.976,3.93,8,3.616a9.731,9.731,0,0,0,6.816-4.744,28.669,28.669,0,0,0,3.024-8.009,25.651,25.651,0,0,0,.333-10.432c-1.008-6.668-3.847-13.483-5.909-19.679a20.068,20.068,0,0,1-1.433-6.474,4.093,4.093,0,0,1,.074-.749v-.194a15.126,15.126,0,0,1,2.672-.925c.518-.139,1.036-.25,1.572-.342q2.691,14.677,5.465,29.408a3.652,3.652,0,0,0,.13.694c.259,1.406.527,2.774.814,4.217s.555,2.543.869,3.8h0c.111.425.222.851.342,1.267h0c.314,1.156.675,2.3,1.082,3.431C862,581.1,866.3,587.96,864.715,595.034Z" transform="translate(-304.017 -192.217)" fill="#ff6584"/>
    <path id="Path_574" data-name="Path 574" d="M979.569,711.925a8.724,8.724,0,0,0,.814,4.189c1.544,2.83,5.253,3.468,8.471,3.7a250.7,250.7,0,0,0,56.273-1.72,6.361,6.361,0,0,0,2.857-.925c2.654-1.849,1.018-6.381-1.849-7.833s-6.325-1.1-9.5-1.729a29.95,29.95,0,0,1-8.887-3.857q-9.655-5.548-19.032-11.56c-3.7-2.4-8.11-4.938-12.3-3.523C985.034,692.579,979.495,699.681,979.569,711.925Z" transform="translate(-318.55 -204.015)" fill="#ff6584"/>
    <path id="Path_575" data-name="Path 575" d="M823.652,559.5h0a2.52,2.52,0,0,1-.093.527c-.037.176-.1.573-.157.86-.518,2.654-1.156,5.308-1.85,7.935-2.016,7.269-4.707,14.417-7.4,21.464q-10.746,28.345-21.52,56.689c-1.85,4.763-3.616,9.525-5.669,14.186l-2.155,4.707c-2.525,5.669-4.948,11.523-5.752,17.571-.527,3.995-1.064,8.083-.259,12.022s3.209,7.814,6.964,9.248c1.849.712,4.467,1.674,3.958,3.579-.268,1.054-1.461,1.563-2.525,1.739a9.738,9.738,0,0,1-7.944-2.284c-2.007-1.785-3.551-4.55-6.215-4.855-1.849-.194-3.551.925-5.243,1.683-6.908,3.154-14.954.925-22.195-1.295.573-2.932,3.523-4.874,6.473-5.456s5.965-.176,8.952-.25a4.734,4.734,0,0,0,2.719-.7,4.946,4.946,0,0,0,1.461-2.506,105.368,105.368,0,0,0,4.282-17.506c.925-6.215,1.359-12.522,2.774-18.653,1.073-4.79,2.719-9.433,4.134-14.131a297.844,297.844,0,0,0,6.742-29.39,105.518,105.518,0,0,0,1.9-12.475c.24-3.477.12-6.973.462-10.441a81.308,81.308,0,0,1,2.774-13.308q1.914-7.112,3.838-14.232c1.9-7.019,3.94-14.307,8.749-19.763A18.588,18.588,0,0,1,814.2,538.09a13.222,13.222,0,0,1,2.839.305l.462.12a11.252,11.252,0,0,1,2.895,1.193c1.489-.925,2.238-.61,3.227.842a9.366,9.366,0,0,1,1.175,5.058,70.21,70.21,0,0,1-1.147,13.891Z" transform="translate(-300.953 -192.72)" fill="#fbbebe"/>
    <path id="Path_576" data-name="Path 576" d="M830.868,565.018l-.065.065-.342.333-3.366,3.366-1.655-6.936-5.66-23.767a13.217,13.217,0,0,1,2.839.305,4.6,4.6,0,0,1,.194-.8l.268.925,1.923,6.474,3.635,12.392.592,2.044h0Z" transform="translate(-306.533 -192.682)" fill="#ff6584"/>
    <rect id="Rectangle_57" data-name="Rectangle 57" width="53.628" height="33.514" rx="12" transform="translate(492.07 279.747)" fill="#3f3d56"/>
    <circle id="Ellipse_106" data-name="Ellipse 106" cx="17.173" cy="17.173" r="17.173" transform="translate(547.381 263.406)" fill="#3f3d56"/>
    <path id="Path_577" data-name="Path 577" d="M874.749,449.457h-.629a17.173,17.173,0,0,1,0,34.319h.629a17.183,17.183,0,1,0,0-34.356Z" transform="translate(-310.62 -186.05)" opacity="0.1"/>
    <path id="Path_578" data-name="Path 578" d="M785.095,449.457h.629a17.173,17.173,0,0,0,0,34.319h-.629a17.183,17.183,0,0,1,0-34.356Z" transform="translate(-302.662 -186.051)" opacity="0.1"/>
    <path id="Path_579" data-name="Path 579" d="M845.478,499.341H801.911a5.049,5.049,0,0,1-5.031-5.031v3.348a5.049,5.049,0,0,0,5.031,5.031h43.567a5.049,5.049,0,0,0,5.031-5.031V494.31A5.049,5.049,0,0,1,845.478,499.341Z" transform="translate(-304.811 -189.427)" opacity="0.1"/>
    <path id="Path_580" data-name="Path 580" d="M901.37,776.136l2.774-126.131a7.463,7.463,0,0,1,6.751-7.26,952.316,952.316,0,0,1,179.482,0,7.463,7.463,0,0,1,6.788,7.4V776.257a7.454,7.454,0,0,1-7.093,7.4c-61.831,2.9-122.423,3.043-181.6,0A7.454,7.454,0,0,1,901.37,776.136Z" transform="translate(-312.669 -200.273)" fill="#f2f2f2"/>
    <rect id="Rectangle_58" data-name="Rectangle 58" width="68.434" height="15.721" rx="2.25" transform="translate(609.166 465.5)" fill="#6c63ff"/>
    <rect id="Rectangle_59" data-name="Rectangle 59" width="156.289" height="7.398" rx="2.25" transform="translate(609.628 492.781)" fill="#6c63ff" opacity="0.3"/>
    <rect id="Rectangle_60" data-name="Rectangle 60" width="156.289" height="7.398" rx="2.25" transform="translate(609.628 512.201)" fill="#6c63ff" opacity="0.3"/>
    <rect id="Rectangle_61" data-name="Rectangle 61" width="103.576" height="7.398" rx="2.25" transform="translate(609.628 531.622)" fill="#6c63ff" opacity="0.3"/>
    <path id="Path_581" data-name="Path 581" d="M987.94,633.748s4.337,12.475,8.323,9.155L993.11,626.59Z" transform="translate(-319.181 -199.377)" fill="#fbbebe"/>
  </g>
</svg>
