<?xml version="1.0"?>
<svg xmlns="http://www.w3.org/2000/svg" id="Layer_1" data-name="Layer 1" viewBox="0 0 512 512" width="512" height="512"><title>Newspaper</title><rect x="171" y="124" width="207" height="144"/><path d="M115,489H360V412.677c0-3.866,3.478-6.677,7.344-6.677H440V66H115Zm177.351-93H164.36a7,7,0,0,1,0-14H292.351a7,7,0,0,1,0,14ZM385.3,342H164.36a7,7,0,0,1,0-14H385.3a7,7,0,0,1,0,14ZM157,117a7,7,0,0,1,7-7H385a7,7,0,0,1,7,7V275a7,7,0,0,1-7,7H164a7,7,0,0,1-7-7Z"/><polygon points="374 478.613 430.985 420 374 420 374 478.613"/><path d="M424.567,30a7,7,0,0,0-7-7H78.579C74.713,23,72,26.135,72,30V467.21a7,7,0,1,0,14,0V37H417.567A7,7,0,0,0,424.567,30Z"/></svg>
